<?xml version="1.0" standalone="no"?>
<!DOCTYPE svg PUBLIC "-//W3C//DTD SVG 20010904//EN"
 "http://www.w3.org/TR/2001/REC-SVG-20010904/DTD/svg10.dtd">
<svg version="1.0" xmlns="http://www.w3.org/2000/svg"
 width="870.000000pt" height="1280.000000pt" viewBox="0 0 870.000000 1280.000000"
 preserveAspectRatio="xMidYMid meet">
<metadata>
Created by potrace 1.15, written by Peter Selinger 2001-2017
</metadata>
<g transform="translate(0.000000,1280.000000) scale(0.100000,-0.100000)"
fill="#000000" stroke="none">
<path d="M4422 12793 c-18 -7 -34 -41 -87 -183 -67 -180 -58 -173 -207 -181
-136 -7 -181 -21 -186 -57 -5 -34 18 -62 112 -141 47 -39 88 -80 91 -92 5 -13
-13 -95 -45 -214 -29 -106 -50 -200 -47 -209 9 -24 32 -20 80 15 46 33 100 59
125 59 9 0 37 23 62 50 48 52 73 62 85 33 4 -10 9 -71 10 -136 2 -66 8 -124
13 -129 24 -24 92 93 92 158 0 12 7 27 15 34 20 17 89 -2 153 -43 39 -25 58
-30 112 -31 61 -1 65 1 78 26 15 32 6 79 -35 172 -31 71 -53 150 -53 190 0 24
16 44 84 108 92 86 123 136 107 167 -20 36 -152 70 -277 71 -29 0 -56 5 -61
13 -6 6 -20 43 -32 81 -32 100 -75 191 -105 221 -23 23 -54 30 -84 18z m88
-232 c55 -175 63 -182 233 -195 74 -6 120 -23 124 -46 2 -9 -20 -30 -55 -52
-94 -61 -122 -93 -122 -142 0 -52 23 -144 50 -196 16 -31 18 -45 10 -60 -6
-11 -16 -20 -22 -20 -6 0 -52 31 -102 69 -155 117 -161 118 -277 21 -46 -38
-105 -81 -131 -95 -85 -46 -88 -18 -17 137 28 61 55 122 60 135 8 21 0 33 -76
107 -119 116 -114 143 22 131 109 -10 144 22 183 167 26 98 55 168 69 168 6 0
28 -58 51 -129z"/>
<path d="M4214 11668 c10 -52 79 -183 99 -186 28 -5 21 54 -13 123 -35 68 -57
95 -78 95 -11 0 -13 -8 -8 -32z"/>
<path d="M4667 11693 c-16 -16 -4 -35 31 -49 37 -16 82 -51 82 -65 0 -3 -13
-12 -30 -19 -31 -13 -33 -17 -34 -60 -1 -20 -12 -31 -62 -55 -101 -50 -117
-75 -49 -75 34 0 44 -12 46 -53 0 -16 3 -13 12 12 16 45 54 72 111 78 57 7 64
-7 41 -77 -16 -48 -16 -51 4 -83 11 -17 63 -72 115 -120 117 -108 154 -153
138 -169 -9 -9 -20 -7 -44 6 -36 19 -114 64 -148 84 -20 13 -21 12 -14 -22 8
-44 -4 -46 -61 -11 -61 38 -69 34 -61 -29 3 -30 3 -57 -2 -59 -4 -3 -26 -2
-50 3 -67 12 -68 -26 -3 -60 21 -10 57 -35 80 -54 24 -20 44 -36 46 -36 15 0
35 38 35 65 0 21 6 35 16 39 9 3 69 6 134 6 87 0 121 3 127 13 4 7 23 19 41
27 33 13 54 44 45 67 -3 7 -38 33 -79 59 -41 25 -112 81 -157 124 l-82 78 19
72 18 72 -23 24 c-13 13 -44 38 -71 55 -26 17 -48 35 -48 39 0 4 11 15 24 24
43 27 42 86 -1 86 -7 0 -37 16 -66 35 -52 35 -68 41 -80 28z"/>
<path d="M4554 11606 c-44 -43 -57 -76 -30 -76 18 0 96 85 96 105 0 26 -21 17
-66 -29z"/>
<path d="M4110 11337 c-54 -19 -45 -41 17 -45 57 -3 133 13 133 29 0 27 -90
37 -150 16z"/>
<path d="M3999 11233 c-30 -36 -112 -93 -134 -93 -13 0 -36 -11 -52 -24 -15
-13 -51 -33 -80 -46 -31 -13 -71 -42 -98 -71 -39 -41 -44 -52 -35 -69 21 -40
90 -43 164 -9 25 12 30 11 42 -6 8 -10 14 -42 14 -72 0 -39 4 -55 15 -59 29
-12 85 7 137 46 77 59 118 51 118 -21 0 -69 -11 -82 -117 -131 -117 -55 -308
-122 -401 -141 -53 -11 -70 -19 -79 -37 -28 -56 43 -120 147 -134 108 -15 120
-18 120 -32 0 -20 -155 -173 -232 -230 -120 -88 -162 -103 -370 -133 -163 -24
-198 -38 -198 -82 0 -41 61 -103 115 -118 90 -25 254 0 357 54 80 42 88 35 88
-77 l0 -70 -65 -60 c-104 -98 -119 -132 -89 -206 19 -49 47 -62 133 -62 40 0
74 -5 85 -13 18 -13 18 -14 0 -32 -19 -19 -126 -71 -204 -99 -108 -39 -143
-85 -100 -131 24 -25 57 -39 123 -50 31 -5 37 -10 37 -31 0 -46 -38 -98 -157
-216 -145 -143 -181 -169 -228 -161 -29 5 -39 0 -82 -40 -26 -25 -56 -59 -66
-76 -17 -29 -17 -32 -2 -37 11 -5 32 9 66 42 l49 48 47 -14 c70 -22 164 -16
263 15 105 34 150 56 190 95 39 38 64 28 81 -33 25 -90 31 -106 45 -118 23
-19 76 11 113 65 41 59 101 185 101 211 0 26 14 43 63 79 33 24 37 32 37 71 0
49 -17 95 -35 95 -32 0 -84 -90 -110 -190 -37 -143 -109 -296 -126 -269 -5 8
-6 75 -3 149 6 125 5 137 -13 159 -27 33 -44 24 -82 -43 -38 -69 -93 -131
-143 -162 -40 -25 -194 -74 -234 -74 -39 0 -28 20 44 84 127 114 200 193 226
244 43 86 33 121 -44 147 -56 19 -86 50 -68 72 6 7 20 13 32 13 31 0 153 61
238 118 90 61 234 189 268 238 14 20 38 51 54 70 29 35 29 64 1 64 -21 0 -44
-25 -109 -118 -31 -44 -62 -85 -70 -91 -21 -17 -35 7 -50 90 -15 76 -26 91
-91 126 -63 33 -65 38 -64 142 1 53 4 107 8 121 7 26 37 45 83 55 29 5 70 43
151 135 55 63 55 64 112 -45 39 -74 80 -124 91 -112 4 4 0 31 -9 61 -9 29 -17
59 -17 67 0 8 23 47 50 87 28 41 50 82 50 92 0 10 27 51 60 90 63 75 69 87 46
96 -18 7 -137 -15 -153 -28 -8 -6 -10 -26 -6 -58 5 -47 -20 -160 -37 -160 -4
0 -12 18 -19 40 -13 43 -41 65 -72 55 -10 -4 -74 -62 -142 -129 -163 -164
-317 -267 -481 -322 -81 -28 -144 -30 -209 -8 -95 32 -81 44 115 93 85 21 175
48 199 60 82 40 149 78 168 96 11 9 49 32 83 49 52 25 67 39 85 75 13 25 34
57 49 72 36 38 43 100 15 128 -18 18 -33 21 -106 21 -132 0 -173 30 -94 70 27
14 68 23 127 27 63 4 93 11 107 23 24 22 87 53 138 70 33 10 41 10 57 -5 18
-16 20 -16 33 18 9 19 22 39 30 43 30 18 87 115 87 150 0 31 -29 122 -48 152
-9 14 -72 -17 -185 -93 -69 -46 -77 -40 -63 44 16 98 -17 115 -120 61 -64 -34
-99 -36 -99 -6 0 26 100 80 188 102 83 20 190 88 195 123 3 22 -13 51 -28 51
-4 0 -14 -7 -21 -17z m-519 -1694 c0 -28 -18 -59 -35 -59 -23 0 -27 18 -10 50
18 34 45 40 45 9z"/>
<path d="M4590 11235 c0 -6 10 -21 23 -33 24 -23 136 -92 149 -92 13 0 9 55
-4 68 -7 7 -22 12 -34 12 -11 0 -47 13 -78 28 -33 17 -56 24 -56 17z"/>
<path d="M4376 11162 c-3 -5 -8 -33 -11 -63 -11 -92 -12 -96 -45 -103 -23 -4
-35 -15 -48 -43 -15 -33 -17 -68 -14 -246 2 -193 13 -331 26 -345 17 -16 21
34 26 288 3 167 9 283 15 288 22 20 63 22 85 4 33 -27 39 -82 40 -364 0 -143
4 -268 10 -283 5 -14 20 -29 33 -34 42 -16 51 -73 15 -92 -25 -13 -190 -5
-235 12 -35 13 -43 25 -43 72 0 34 -3 38 -22 35 -13 -2 -28 -15 -36 -30 -16
-33 -3 -71 41 -116 l32 -33 -35 -29 c-31 -25 -33 -29 -17 -36 24 -9 178 13
231 32 78 29 76 29 76 -2 0 -16 -11 -53 -25 -83 -38 -81 -42 -124 -15 -151 19
-19 30 -22 72 -17 41 5 52 3 70 -15 19 -19 20 -28 14 -117 -7 -103 -19 -132
-64 -155 -35 -18 -109 -98 -122 -132 -16 -40 -12 -100 8 -123 17 -22 146 -71
184 -71 29 0 123 56 148 87 24 31 27 98 6 148 -15 36 -21 38 -68 35 -22 -1
-30 4 -39 27 -14 36 -5 156 14 203 11 25 14 54 10 98 -8 89 25 154 70 136 34
-13 107 -147 107 -197 0 -16 5 -48 11 -73 10 -37 18 -48 50 -65 25 -12 46 -34
60 -60 11 -22 44 -65 73 -95 57 -59 91 -68 134 -38 45 31 24 108 -92 343 -72
147 -83 197 -43 205 12 3 48 7 80 10 101 8 113 45 42 124 -50 55 -56 79 -22
84 17 2 22 10 22 33 0 34 5 33 -130 20 -66 -7 -73 -6 -101 18 -18 15 -53 70
-82 129 -52 106 -86 153 -103 142 -21 -13 24 -160 72 -235 16 -26 35 -64 40
-83 10 -35 11 -36 62 -36 83 -1 187 -57 187 -102 0 -20 -25 -34 -84 -43 -50
-8 -96 -53 -96 -92 0 -16 12 -45 26 -64 37 -48 174 -331 181 -374 8 -48 -15
-47 -59 4 -45 53 -133 202 -153 260 -9 25 -26 65 -38 89 -29 57 -113 168 -133
176 -10 4 -27 -6 -47 -30 -18 -20 -45 -42 -62 -50 -16 -7 -41 -22 -55 -33 -30
-23 -80 -34 -99 -22 -11 7 -11 18 0 67 11 49 21 67 59 104 26 25 61 73 79 106
19 37 43 66 58 73 24 11 25 14 18 69 -9 80 -33 126 -67 130 l-28 3 0 -110 c0
-88 -3 -111 -14 -111 -23 0 -35 23 -56 106 -25 98 -38 213 -48 425 -8 165 -8
166 -41 218 -25 38 -35 67 -38 104 -6 82 -11 97 -33 97 -10 0 -21 -4 -24 -8z
m203 -1727 c43 -50 50 -83 21 -107 -30 -25 -56 -23 -85 7 -29 28 -32 63 -10
105 20 39 36 38 74 -5z"/>
<path d="M4153 11138 c-26 -13 -29 -23 -9 -31 27 -11 86 13 86 34 0 12 -50 10
-77 -3z"/>
<path d="M3992 11045 c0 -16 2 -22 5 -12 2 9 2 23 0 30 -3 6 -5 -1 -5 -18z"/>
<path d="M4200 11013 c0 -31 15 -61 25 -51 4 4 8 21 8 39 2 24 -3 34 -15 37
-14 3 -18 -3 -18 -25z"/>
<path d="M4932 10773 c3 -27 17 -77 32 -113 35 -82 38 -106 11 -102 -22 4 -65
40 -65 55 0 19 -49 75 -85 97 -43 27 -60 19 -41 -18 19 -37 264 -276 301 -295
52 -26 155 -51 166 -40 17 17 -2 43 -51 68 -26 13 -60 39 -76 57 -39 44 -107
178 -130 253 -20 69 -30 85 -51 85 -12 0 -15 -10 -11 -47z"/>
<path d="M4601 10731 c-13 -23 -14 -51 -3 -51 14 0 32 23 32 41 0 27 -18 32
-29 10z"/>
<path d="M5285 10668 c-8 -33 38 -190 61 -209 14 -11 18 -10 30 6 8 10 14 27
14 37 0 33 -42 130 -70 162 l-28 31 -7 -27z"/>
<path d="M5594 10581 c-31 -19 -74 -67 -74 -82 0 -5 11 -9 23 -9 23 0 117 81
117 101 0 15 -33 10 -66 -10z"/>
<path d="M5664 10402 c-84 -61 -83 -86 1 -52 58 24 105 55 105 71 0 20 -68 8
-106 -19z"/>
<path d="M5620 10226 c0 -40 132 -145 157 -125 19 16 16 27 -14 56 -28 25
-121 83 -135 83 -5 0 -8 -6 -8 -14z"/>
<path d="M5414 10169 c-4 -7 -10 -60 -14 -118 -5 -83 -12 -115 -30 -150 -23
-42 -23 -47 -17 -240 8 -227 24 -412 39 -450 10 -24 11 -25 18 -6 5 11 9 167
9 348 l1 327 50 0 50 0 0 -57 c0 -165 22 -628 31 -651 l11 -27 16 30 c15 26
17 70 17 355 0 179 -4 338 -8 353 -6 21 -20 33 -55 48 -25 11 -49 22 -51 25
-3 3 -10 53 -16 112 -8 86 -13 107 -27 110 -9 2 -20 -2 -24 -9z"/>
<path d="M4253 9928 c-41 -20 -28 -38 27 -38 55 0 100 16 100 37 0 16 -94 17
-127 1z"/>
<path d="M3875 9880 c-11 -5 -39 -9 -62 -9 -50 -1 -71 -26 -49 -56 10 -14 21
-17 48 -12 51 8 133 49 133 67 0 17 -40 23 -70 10z"/>
<path d="M4308 9744 c-15 -14 -8 -22 35 -43 50 -24 87 -27 87 -7 0 29 -102 71
-122 50z"/>
<path d="M3818 9694 c-16 -8 -28 -19 -28 -25 0 -30 72 -16 106 22 17 18 16 19
-17 19 -19 -1 -46 -8 -61 -16z"/>
<path d="M4080 9640 c-8 -20 -10 -50 -6 -86 6 -54 6 -55 -29 -75 -24 -15 -36
-30 -40 -52 -9 -47 12 -603 23 -623 20 -36 26 18 29 291 2 154 6 290 9 303 3
17 11 22 38 22 18 0 39 -7 46 -15 13 -16 25 -171 35 -477 4 -109 11 -198 16
-198 5 0 18 6 29 12 28 18 46 -2 30 -32 -17 -31 -70 -50 -140 -50 -82 0 -129
27 -130 73 0 26 -28 18 -53 -15 -20 -26 -20 -26 0 -55 11 -15 30 -48 43 -72
14 -29 25 -40 30 -32 12 21 55 9 58 -16 4 -29 8 -29 37 5 22 25 25 26 40 11
16 -16 20 -15 53 7 47 32 76 28 80 -9 5 -42 -5 -62 -23 -47 -19 16 -69 9 -73
-11 -2 -11 8 -20 27 -27 17 -6 31 -15 31 -21 0 -16 -77 -107 -110 -131 -32
-23 -60 -21 -60 3 0 8 14 31 30 52 17 21 30 39 30 40 0 1 -5 17 -11 34 l-12
33 -17 -40 c-21 -47 -67 -82 -109 -82 -26 0 -33 -6 -45 -34 -8 -20 -28 -42
-46 -51 -26 -13 -31 -21 -25 -38 4 -12 9 -51 12 -87 3 -54 0 -72 -19 -109 -26
-50 -47 -67 -72 -58 -13 5 -16 22 -16 91 0 47 -4 87 -8 90 -8 5 -48 -26 -180
-139 -124 -106 -193 -155 -218 -155 -35 0 -30 25 10 49 40 25 74 67 110 138
32 65 33 88 1 109 -53 35 -25 56 125 94 47 11 96 29 110 39 15 10 50 31 79 45
28 15 66 40 83 56 17 17 38 30 47 30 41 0 55 46 17 56 -35 8 -58 -1 -113 -47
-59 -49 -162 -100 -268 -132 -119 -37 -194 -75 -201 -103 -7 -28 2 -44 25 -44
28 0 41 -21 41 -65 0 -49 -11 -62 -121 -153 -99 -81 -139 -125 -139 -153 0
-31 21 -32 106 -5 102 33 185 82 298 179 50 43 98 76 106 75 9 -2 19 -23 25
-55 16 -85 29 -91 155 -80 21 2 25 -2 25 -23 0 -22 -4 -25 -33 -25 -30 0 -35
-4 -47 -39 -16 -46 -154 -191 -201 -212 -17 -7 -46 -27 -65 -45 -56 -52 -167
-123 -280 -178 -58 -28 -123 -66 -145 -85 -34 -30 -37 -35 -20 -42 22 -8 48 4
291 134 l180 97 186 185 c247 245 324 363 255 390 -35 13 -56 49 -63 108 l-6
51 37 -6 37 -6 -6 36 c-16 82 26 85 51 3 17 -55 33 -429 20 -480 -4 -16 -29
-43 -67 -70 -75 -55 -106 -96 -115 -152 -6 -45 8 -107 33 -135 8 -9 41 -34 74
-54 55 -34 63 -36 90 -25 27 12 32 11 45 -9 18 -24 54 -28 54 -5 0 8 25 51 55
96 30 44 55 89 55 100 0 33 -29 90 -63 123 -43 42 -58 95 -68 235 -4 63 -12
132 -18 154 -18 70 9 96 134 131 33 9 79 30 102 46 45 32 63 31 63 -2 0 -10 9
-28 21 -40 28 -28 23 -48 -49 -205 -107 -231 -114 -285 -38 -299 46 -9 69 7
226 162 l126 123 37 -38 c20 -20 43 -56 51 -80 20 -57 47 -93 85 -115 l31 -18
51 48 c61 56 125 150 139 205 19 67 60 39 60 -42 0 -37 -3 -42 -34 -55 -23
-10 -36 -23 -41 -42 -3 -15 -20 -42 -36 -60 -16 -19 -29 -37 -29 -42 0 -20 15
-17 55 12 24 18 55 40 69 50 35 24 58 73 58 119 -1 39 11 51 22 22 3 -9 6 -28
6 -42 l1 -27 13 24 c8 14 22 28 32 32 11 4 81 8 156 8 l136 1 6 -27 c12 -66
17 -133 11 -153 -3 -11 -31 -36 -60 -55 -30 -19 -66 -52 -80 -75 -14 -22 -30
-40 -35 -40 -13 0 -13 -65 1 -113 7 -27 24 -47 62 -76 66 -49 109 -71 140 -71
31 0 134 68 181 120 46 51 53 81 31 130 -21 47 -41 66 -103 100 -59 32 -60 38
-64 300 -3 186 -1 209 16 249 19 41 19 45 3 70 -36 57 -48 92 -41 127 8 42 17
43 139 9 49 -14 100 -25 111 -25 12 0 44 20 70 43 47 43 48 44 35 75 -19 46
-79 95 -168 138 -71 34 -223 130 -223 141 0 2 7 17 15 33 12 24 22 30 48 30
57 0 102 61 107 145 5 69 3 72 -39 78 -22 3 -59 19 -83 36 l-43 31 -70 -25
c-76 -27 -191 -34 -240 -15 -25 9 -27 14 -21 48 13 76 12 87 -9 87 -14 0 -29
-19 -55 -70 -34 -67 -37 -70 -74 -73 -42 -4 -117 20 -136 42 -8 11 -2 25 30
61 25 29 40 56 40 73 0 42 -32 85 -83 112 l-46 25 -35 -38 c-18 -20 -43 -37
-54 -37 -59 0 -67 -26 -20 -65 l31 -26 12 28 c20 48 106 71 139 37 19 -19 19
-18 1 -54 -14 -27 -52 -60 -100 -86 -11 -6 -22 -21 -23 -34 -3 -21 -1 -22 26
-17 36 7 45 -2 64 -68 15 -49 15 -50 26 -23 16 40 30 42 72 13 37 -26 41 -26
94 -14 49 11 58 10 93 -8 45 -24 127 -43 183 -43 44 0 91 -15 102 -33 21 -33
-1 -52 -83 -67 -59 -11 -81 -3 -103 38 l-15 27 -1 -37 c0 -24 7 -45 18 -56 21
-21 247 -153 407 -237 125 -66 145 -81 145 -106 0 -56 -107 -49 -235 15 -49
25 -109 52 -133 60 -23 7 -67 31 -96 51 -30 20 -59 34 -65 31 -6 -4 -15 -26
-21 -49 -17 -66 -32 -98 -44 -94 -29 9 -71 144 -86 274 -9 82 -29 113 -73 113
-11 0 -28 7 -38 16 -13 12 -22 13 -38 5 -11 -6 -30 -11 -42 -11 -12 0 -38 -5
-56 -12 -46 -17 -64 -3 -83 63 -15 52 -17 54 -52 57 -20 2 -42 10 -48 18 -7 8
-16 14 -21 14 -21 0 40 -201 86 -285 19 -33 47 -101 63 -150 16 -50 37 -106
47 -125 27 -53 405 -421 470 -457 33 -19 10 -41 -50 -48 -81 -10 -122 -1 -222
51 -110 57 -110 58 -124 105 -7 21 -20 46 -30 55 -29 26 -41 -10 -28 -83 16
-82 7 -187 -22 -257 -45 -110 -68 -102 -132 46 -37 85 -40 101 -42 188 -1 92
-9 124 -37 148 -11 9 -14 0 -13 -46 0 -57 0 -58 -89 -171 -49 -63 -122 -148
-161 -188 -61 -64 -76 -74 -101 -71 -27 3 -29 5 -28 50 0 37 10 62 51 130 78
127 167 295 198 373 24 61 27 78 21 139 -13 135 -31 151 -71 61 -29 -66 -143
-182 -230 -234 -71 -43 -148 -70 -197 -71 -35 0 -38 2 -38 29 0 35 37 83 182
238 86 92 109 123 127 172 12 33 33 74 46 89 97 115 102 276 10 336 -36 24
-70 20 -94 -10 -12 -15 -21 -32 -21 -38 0 -6 32 -41 71 -77 l71 -67 -15 -28
c-9 -16 -36 -56 -61 -89 -25 -32 -54 -85 -66 -117 -22 -61 -40 -83 -40 -48 0
12 -18 76 -40 143 -23 67 -53 189 -67 271 -25 141 -25 152 -10 198 14 44 14
53 1 84 -11 25 -13 52 -8 93 7 63 4 67 -51 86 -28 10 -30 13 -28 60 1 28 3 62
4 78 1 17 -6 36 -21 52 -30 32 -35 31 -50 -5z m1567 -588 c43 -27 -85 -69
-169 -55 -57 9 -55 20 4 37 97 27 143 32 165 18z m106 -49 c4 -3 2 -12 -3 -18
-6 -7 -16 -32 -23 -56 -9 -32 -21 -48 -41 -58 -62 -30 -56 35 10 104 35 35 45
40 57 28z m-759 -195 c8 -13 7 -21 -2 -30 -10 -10 -17 -8 -33 9 -23 22 -18 46
8 41 9 -2 21 -11 27 -20z m81 -8 c13 -24 22 -30 49 -30 19 0 42 -3 51 -6 29
-11 46 -61 43 -127 -1 -52 3 -70 25 -108 17 -29 27 -60 27 -85 0 -65 -38 -86
-64 -35 -9 16 -34 37 -60 49 -45 22 -49 28 -61 95 -3 20 -19 65 -35 100 -34
70 -39 131 -13 159 21 23 20 23 38 -12z m497 -320 l43 -37 3 -109 c4 -109 -10
-289 -22 -301 -13 -13 -76 30 -175 118 -115 102 -144 142 -135 188 10 47 46
81 89 81 37 0 75 28 75 55 0 25 36 54 59 48 12 -3 40 -22 63 -43z m-962 -112
c-1 -39 -54 -181 -72 -192 -31 -19 -31 2 1 57 35 61 39 79 15 70 -13 -5 -15
-2 -9 18 11 38 34 69 50 69 9 0 15 -9 15 -22z m-656 -343 c10 -14 14 -34 11
-45 -6 -20 -31 -33 -46 -24 -17 10 -8 94 11 94 4 0 15 -11 24 -25z m164 -411
c3 -24 -6 -30 -70 -39 -34 -5 -47 -3 -57 9 -17 20 -7 34 32 45 52 16 92 9 95
-15z m1496 -20 c11 -4 16 -19 16 -46 0 -32 -6 -46 -31 -69 -48 -45 -119 -37
-119 13 0 63 79 123 134 102z"/>
<path d="M5140 8701 c-14 -27 -13 -51 4 -51 15 0 26 21 26 51 0 25 -16 24 -30
0z"/>
<path d="M4830 9501 c0 -12 5 -21 10 -21 6 0 10 6 10 14 0 8 -4 18 -10 21 -5
3 -10 -3 -10 -14z"/>
<path d="M4352 9438 c-16 -16 -15 -28 3 -28 8 0 15 9 15 20 0 23 -2 24 -18 8z"/>
<path d="M6025 9334 c-66 -25 -151 -52 -189 -60 -129 -28 -154 -59 -99 -125
43 -51 77 -61 159 -44 143 30 276 116 289 185 7 40 -8 90 -27 90 -7 -1 -67
-21 -133 -46z m85 -47 c0 -37 -71 -87 -123 -87 -58 0 -35 48 38 81 47 22 85
24 85 6z"/>
<path d="M3913 9208 c-39 -43 -63 -79 -63 -96 0 -22 27 4 34 32 3 13 22 35 41
50 19 15 35 31 35 37 0 17 -16 9 -47 -23z"/>
<path d="M4790 9090 c0 -11 5 -20 10 -20 6 0 10 9 10 20 0 11 -4 20 -10 20 -5
0 -10 -9 -10 -20z"/>
<path d="M4690 9005 c0 -15 4 -24 10 -20 6 3 10 12 10 20 0 8 -4 17 -10 20 -6
4 -10 -5 -10 -20z"/>
<path d="M2653 8655 c-7 -20 12 -126 30 -165 7 -14 23 -26 36 -28 23 -4 24 -2
18 42 -8 53 -42 140 -63 157 -11 9 -15 7 -21 -6z"/>
<path d="M4730 8606 c0 -9 17 -49 37 -89 33 -64 38 -69 41 -44 2 16 -8 51 -25
84 -28 56 -53 79 -53 49z"/>
<path d="M6146 8542 c-14 -23 36 -194 69 -238 12 -15 16 -16 23 -6 11 17 -14
165 -36 212 -17 34 -44 50 -56 32z"/>
<path d="M3119 8446 c-83 -30 -132 -76 -89 -83 19 -4 152 68 158 85 5 15 -23
15 -69 -2z"/>
<path d="M2480 8432 c0 -28 52 -103 105 -151 86 -79 62 -8 -38 111 -44 53 -67
66 -67 40z"/>
<path d="M6446 8398 c-26 -24 -38 -69 -21 -75 20 -6 105 56 105 77 0 28 -51
27 -84 -2z"/>
<path d="M5966 8254 c-9 -24 42 -68 108 -93 47 -17 61 -19 67 -9 5 7 9 16 9
20 0 10 -51 48 -64 48 -6 0 -28 11 -48 25 -43 29 -63 32 -72 9z"/>
<path d="M3041 8204 c18 -22 144 -84 170 -84 20 0 20 2 7 23 -20 30 -115 77
-157 77 -29 0 -32 -2 -20 -16z"/>
<path d="M6526 8205 c-54 -19 -73 -39 -56 -59 16 -20 43 -20 109 0 55 16 71
35 51 59 -15 18 -53 19 -104 0z"/>
<path d="M2478 8124 c-27 -8 -48 -18 -48 -23 0 -24 121 -28 145 -5 38 38 -16
54 -97 28z"/>
<path d="M2967 8084 c-14 -14 71 -144 94 -144 15 0 10 28 -12 73 -34 67 -62
91 -82 71z"/>
<path d="M2832 8054 c-5 -11 -12 -36 -16 -56 -4 -21 -18 -50 -31 -66 -42 -51
-45 -72 -44 -350 1 -307 7 -375 30 -380 23 -4 29 72 29 377 0 141 4 261 8 268
4 7 26 15 48 19 55 8 74 -11 75 -79 4 -305 17 -569 27 -579 6 -6 15 -8 19 -4
5 4 9 155 11 336 l3 328 -44 25 c-58 35 -69 49 -78 109 -10 60 -23 78 -37 52z"/>
<path d="M5975 8028 c-46 -16 -56 -27 -44 -49 11 -21 37 -24 90 -9 39 11 82
46 74 61 -8 12 -82 10 -120 -3z"/>
<path d="M6440 8027 c0 -19 140 -152 169 -162 43 -13 45 10 4 56 -80 89 -173
146 -173 106z"/>
<path d="M6282 7973 c-5 -10 -13 -36 -16 -58 -9 -47 -31 -85 -50 -85 -36 0
-41 -55 -41 -420 0 -366 3 -400 40 -400 18 0 17 -14 19 390 1 284 3 318 19
343 23 35 70 37 89 5 10 -17 14 -114 18 -373 3 -192 9 -358 14 -368 12 -26 29
-15 38 24 3 19 10 181 14 360 6 307 6 328 -12 357 -10 18 -22 32 -26 32 -4 0
-21 19 -38 42 -23 32 -30 52 -30 89 0 73 -18 102 -38 62z"/>
<path d="M2520 7955 c-16 -19 -9 -49 14 -53 20 -4 66 34 66 55 0 18 -64 17
-80 -2z"/>
<path d="M3617 7933 c-4 -3 -7 -27 -6 -52 l1 -46 13 30 c23 48 17 93 -8 68z"/>
<path d="M6013 7840 c-17 -7 -23 -18 -23 -40 0 -33 19 -39 64 -19 34 16 39 36
13 54 -24 17 -24 17 -54 5z"/>
<path d="M3504 7805 c-7 -18 14 -47 27 -39 5 3 9 16 9 30 0 27 -27 34 -36 9z"/>
<path d="M4601 7676 c-16 -19 19 -60 83 -96 51 -30 86 -38 86 -21 0 12 -89 91
-128 113 -25 15 -32 16 -41 4z"/>
<path d="M5213 7607 c-96 -35 -40 -79 58 -46 49 17 62 29 48 45 -14 17 -62 17
-106 1z"/>
<path d="M4938 7418 c-8 -15 -13 -61 -13 -127 l0 -103 -35 -29 c-19 -16 -37
-29 -40 -29 -3 0 -16 -18 -30 -41 -19 -30 -41 -48 -86 -69 -79 -38 -88 -49
-80 -102 8 -51 51 -148 66 -148 13 0 13 1 -5 43 -19 46 -19 100 -1 136 16 31
91 70 106 55 5 -5 14 -101 20 -214 14 -295 22 -350 50 -350 6 0 10 112 11 293
1 160 4 306 8 322 6 28 10 30 49 29 24 0 48 -6 55 -13 9 -9 14 -102 18 -330 7
-332 14 -388 45 -346 8 10 14 31 14 47 0 23 4 28 25 28 30 0 30 -2 5 85 -28
97 -28 145 1 184 l23 31 -27 80 c-15 44 -27 95 -27 113 0 86 -12 127 -51 170
-41 44 -44 55 -54 182 -7 92 -14 125 -26 125 -4 0 -14 -10 -21 -22z"/>
<path d="M5167 7423 c-14 -13 -6 -32 43 -98 28 -37 50 -74 50 -81 0 -10 13
-14 43 -14 83 0 81 11 -20 110 -91 88 -103 97 -116 83z"/>
<path d="M4602 7390 c-48 -22 -55 -52 -13 -58 29 -5 107 15 139 35 19 12 21
17 11 29 -16 20 -86 17 -137 -6z"/>
<path d="M3807 7352 c-21 -23 -21 -31 -1 -92 19 -57 8 -90 -30 -90 -13 0 -62
20 -109 45 -90 47 -121 55 -130 31 -3 -8 -6 -97 -6 -198 0 -266 1 -263 -22
-323 -22 -58 -49 -85 -86 -85 -29 0 -33 19 -30 145 l2 100 -48 88 c-50 91 -68
108 -96 90 -17 -11 -27 -38 -66 -183 -14 -52 -43 -133 -65 -178 -22 -46 -40
-92 -40 -103 0 -32 -39 -125 -71 -169 -49 -68 -55 -46 -36 132 25 226 21 278
-21 278 -28 0 -82 -38 -82 -58 0 -26 -118 -141 -209 -204 -119 -83 -288 -131
-335 -95 -18 13 -18 15 8 39 15 13 76 55 136 92 60 37 128 88 150 112 42 46
79 114 80 146 0 28 -39 46 -122 57 -102 14 -139 28 -232 89 -43 29 -87 52 -98
52 -28 0 -108 78 -108 106 0 40 60 27 138 -30 19 -14 66 -32 110 -41 88 -19
172 -39 252 -60 30 -8 103 -18 162 -22 96 -5 110 -4 147 16 23 11 48 21 55 21
17 0 96 85 96 104 0 7 -7 17 -16 20 -18 7 -38 -6 -67 -41 -27 -33 -86 -45
-180 -38 -95 8 -153 21 -163 37 -4 6 -7 29 -8 52 -1 35 -4 41 -21 39 -11 -1
-24 -9 -30 -19 -5 -9 -21 -30 -33 -45 -30 -36 -71 -38 -168 -8 -90 28 -120 44
-173 92 -39 36 -47 39 -85 34 -82 -11 -120 -93 -76 -165 48 -78 284 -200 518
-268 50 -14 -77 -147 -220 -228 -119 -68 -142 -87 -159 -128 -10 -26 -10 -32
7 -49 46 -45 245 -52 324 -10 25 13 56 30 70 37 13 8 28 10 31 6 4 -4 12 -86
18 -182 6 -96 13 -189 15 -207 4 -28 0 -34 -50 -67 -30 -20 -59 -48 -64 -61
-5 -13 -18 -29 -30 -35 -15 -8 -20 -21 -20 -51 0 -57 51 -109 107 -109 57 0
83 -10 83 -31 0 -26 -39 -49 -83 -49 -32 0 -202 -51 -397 -118 -25 -8 -60 -30
-77 -48 -27 -26 -33 -40 -33 -76 0 -51 11 -64 78 -93 23 -10 42 -23 42 -30 0
-23 -53 -66 -96 -76 -48 -12 -69 -31 -60 -54 9 -24 43 -18 117 21 73 38 139
102 139 132 0 33 -38 57 -89 57 -46 0 -46 0 -49 36 -2 29 2 41 22 56 31 25
162 69 245 82 35 6 68 15 75 20 6 5 60 24 119 41 60 17 166 55 236 85 71 30
151 58 177 62 37 6 50 13 52 28 6 29 18 41 76 74 55 30 130 107 120 122 -7 12
-71 -22 -191 -103 -118 -79 -210 -125 -224 -111 -5 5 -14 46 -19 92 -11 98
-24 128 -70 159 -19 13 -38 29 -42 36 -4 8 -13 69 -19 137 -6 68 -20 157 -30
198 -10 41 -19 82 -19 91 0 15 43 54 157 143 75 57 91 26 58 -109 -32 -129
-47 -236 -43 -304 3 -53 4 -55 33 -58 29 -3 34 3 78 76 26 44 65 126 88 183
22 57 46 110 51 116 14 18 28 7 28 -22 0 -39 11 -55 36 -55 29 0 31 20 4 43
-16 14 -20 29 -20 85 0 56 5 80 30 128 26 53 85 124 93 113 2 -2 18 -58 35
-124 18 -65 40 -127 49 -138 14 -14 29 -17 77 -15 55 3 62 6 74 30 26 55 52
206 57 333 8 177 13 215 30 215 21 0 126 -48 147 -67 17 -15 19 -14 38 9 10
14 33 31 49 38 16 6 32 18 35 26 4 11 -11 116 -29 192 -7 27 -36 29 -58 4z
m-1109 -1394 c35 -35 -14 -82 -63 -60 -31 14 -32 36 -3 56 27 19 50 20 66 4z"/>
<path d="M4346 7258 c-28 -59 -42 -128 -31 -155 6 -16 8 -15 20 7 12 22 28 81
49 173 10 45 -11 31 -38 -25z"/>
<path d="M4207 7206 c-41 -50 -57 -57 -57 -27 0 25 -20 38 -31 20 -5 -8 -9
-28 -9 -44 0 -44 -19 -66 -112 -129 -78 -52 -102 -61 -214 -82 -58 -11 -122
-107 -131 -199 -7 -62 -3 -66 96 -84 132 -26 142 -49 48 -109 -49 -30 -72 -53
-101 -100 -27 -46 -49 -68 -89 -90 -72 -41 -206 -158 -218 -190 -24 -62 -22
-78 10 -113 17 -19 38 -42 46 -52 13 -15 26 -17 78 -12 133 13 165 24 219 72
33 29 54 41 60 35 16 -16 1 -46 -60 -115 -31 -35 -74 -98 -95 -138 -21 -41
-69 -112 -107 -159 -134 -163 -170 -216 -199 -290 -55 -139 -57 -154 -31 -207
19 -39 22 -55 17 -112 -7 -73 -32 -156 -55 -184 -15 -17 -17 -17 -28 6 -7 13
-23 82 -34 153 -24 140 -48 209 -86 245 -20 18 -29 21 -42 13 -35 -22 -44 -64
-52 -238 -10 -195 -20 -270 -56 -410 -34 -132 -46 -155 -86 -156 -34 0 -45 26
-51 128 -4 62 -14 123 -28 162 -19 55 -20 69 -10 112 17 74 14 93 -24 179 -19
44 -35 89 -35 99 0 57 -70 -12 -126 -121 -19 -39 -55 -132 -80 -207 -25 -75
-58 -155 -73 -177 -16 -22 -42 -67 -59 -101 -17 -34 -57 -103 -90 -155 -32
-52 -69 -114 -82 -139 -27 -53 -39 -63 -58 -47 -24 20 -8 84 62 247 79 183
115 310 123 438 l6 94 -24 -4 c-17 -2 -25 -11 -30 -35 -3 -18 -21 -49 -38 -70
-18 -21 -41 -48 -51 -60 -14 -18 -29 -23 -64 -23 -44 0 -46 -1 -46 -30 0 -50
-34 -63 -169 -68 -64 -2 -134 0 -156 5 -37 8 -41 12 -51 53 -10 41 -13 45 -42
46 -20 0 -40 9 -56 27 -35 38 -69 43 -147 22 -37 -9 -72 -14 -78 -10 -49 30
74 124 164 125 47 1 112 28 139 58 17 20 18 22 2 28 -30 11 -148 -3 -208 -26
-108 -40 -157 -88 -165 -162 -7 -63 6 -70 143 -80 64 -4 125 -13 137 -19 39
-20 127 -113 127 -134 0 -14 -16 -28 -53 -48 -28 -15 -95 -66 -147 -112 -125
-111 -188 -145 -269 -145 -35 0 -74 -6 -91 -15 -43 -22 -72 -76 -68 -127 5
-65 38 -80 176 -79 174 0 329 39 426 104 21 15 47 27 56 27 10 0 42 25 71 56
30 30 66 62 80 69 15 8 48 47 75 87 26 40 75 102 109 138 34 36 79 91 99 123
35 55 60 77 73 63 9 -9 -32 -148 -66 -221 -15 -33 -35 -82 -44 -110 -9 -27
-27 -81 -41 -120 -27 -76 -34 -159 -13 -172 6 -4 26 -12 42 -18 22 -7 38 -25
59 -65 53 -103 90 -160 103 -160 24 0 13 40 -42 149 l-54 109 65 88 c36 49 82
120 101 159 20 38 55 96 78 127 24 32 48 73 55 92 20 61 47 55 69 -16 13 -38
31 -51 31 -23 0 9 -9 43 -21 77 l-20 61 26 91 c15 50 29 119 32 154 6 70 30
100 64 81 48 -25 63 -112 29 -167 -27 -43 -25 -59 10 -111 36 -53 39 -102 10
-185 -14 -42 -17 -63 -10 -82 19 -48 69 -111 99 -124 27 -11 35 -10 58 6 40
26 57 49 110 149 l47 90 12 -55 c10 -40 10 -67 2 -103 -9 -45 -8 -51 15 -84
19 -27 24 -41 17 -54 -18 -33 -91 -87 -228 -168 -76 -45 -161 -100 -188 -123
-27 -22 -75 -58 -106 -79 -57 -39 -74 -56 -65 -65 7 -8 102 42 182 96 39 26
113 72 165 103 183 107 500 377 500 425 0 5 9 17 21 28 42 38 66 114 36 114
-16 0 -72 -58 -80 -83 -5 -12 -15 -17 -29 -15 -18 2 -27 -5 -40 -34 -10 -21
-37 -58 -61 -83 -72 -74 -95 -58 -94 65 1 66 -3 83 -31 137 -38 73 -40 118
-11 175 17 32 20 50 14 82 -14 81 0 255 22 263 27 11 35 -15 43 -145 13 -187
41 -240 121 -229 51 7 77 30 85 76 10 64 35 129 63 168 15 21 40 62 56 92 35
64 101 124 127 115 28 -9 122 39 148 76 24 34 89 69 128 70 27 0 29 -23 7
-106 -13 -51 -13 -59 3 -88 14 -25 17 -58 18 -171 1 -192 1 -193 29 -220 18
-19 35 -25 69 -25 24 0 52 3 61 6 32 13 80 143 105 284 7 36 16 71 22 78 14
16 48 15 67 -2 9 -8 23 -15 31 -16 63 -9 67 21 5 44 -24 10 -59 31 -76 47 -34
32 -34 28 -5 154 11 45 19 151 25 301 6 162 13 239 22 260 17 35 30 36 45 3 6
-13 20 -42 30 -63 28 -59 151 -186 179 -186 13 0 40 16 61 35 l37 35 -6 148
c-6 148 -37 384 -56 435 -6 15 -21 31 -34 36 -42 16 -131 130 -115 147 4 3 37
14 75 24 37 10 91 27 118 38 l50 20 3 74 c2 61 -1 81 -21 118 -33 63 -99 112
-146 108 -55 -5 -49 -36 13 -68 54 -27 93 -72 102 -117 7 -38 -31 -87 -82
-103 -32 -11 -41 -9 -86 14 -55 29 -114 34 -144 12 -19 -14 -18 -16 14 -81 18
-36 55 -96 82 -131 59 -77 122 -205 144 -290 21 -82 38 -246 30 -295 -7 -40
-26 -59 -61 -59 -12 0 -37 28 -70 78 -61 93 -72 113 -113 220 -29 75 -83 152
-107 152 -5 0 -18 -6 -29 -14 -18 -14 -19 -31 -20 -518 -1 -604 -6 -663 -75
-799 -36 -72 -58 -86 -91 -60 l-23 19 0 324 c0 177 4 351 8 385 7 56 6 64 -13
83 -19 19 -24 20 -43 7 -12 -7 -42 -47 -67 -88 -25 -41 -54 -87 -65 -102 -28
-38 -194 -162 -274 -204 -36 -19 -76 -43 -87 -54 -13 -12 -32 -19 -46 -17 -20
3 -23 8 -21 41 4 58 73 194 132 262 83 93 167 206 201 271 18 32 53 82 79 110
38 42 51 66 74 142 30 102 34 147 12 155 -14 6 -91 -49 -130 -93 -36 -40 -95
-63 -175 -68 -71 -4 -78 -3 -108 23 -18 15 -32 33 -32 40 0 18 109 117 201
181 43 31 89 69 101 86 30 39 92 102 156 156 59 49 83 103 63 141 -13 23 -26
25 -113 22 -31 -2 -70 0 -87 4 -26 5 -31 11 -31 34 0 52 74 140 118 141 13 0
30 7 38 15 9 8 27 15 40 15 44 0 97 30 160 90 34 33 71 60 82 60 28 0 79 62
92 111 18 67 9 75 -33 25z m-2090 -2510 c4 -3 0 -14 -9 -23 -21 -21 -161 -32
-173 -13 -10 16 6 30 47 41 36 9 124 6 135 -5z m-267 -71 c0 -33 1 -34 26 -25
37 14 100 12 113 -4 9 -10 1 -27 -36 -74 -27 -34 -57 -76 -68 -94 -21 -32 -41
-39 -76 -24 -10 4 -34 -10 -73 -44 -31 -27 -63 -50 -70 -50 -8 0 -59 -30 -116
-67 -118 -77 -161 -86 -270 -58 -141 36 -133 89 20 121 106 22 147 47 340 208
96 80 183 146 193 146 13 0 17 -8 17 -35z"/>
<path d="M4666 7190 c-34 -10 -76 -48 -76 -67 0 -21 26 -26 52 -10 13 8 41 20
63 27 47 15 69 30 58 41 -14 13 -67 18 -97 9z"/>
<path d="M5475 7190 c-3 -5 21 -30 53 -55 37 -29 70 -65 87 -96 25 -47 28 -49
60 -43 20 3 35 1 40 -5 21 -36 226 -104 247 -83 16 16 1 30 -40 41 -48 13
-137 67 -231 139 -40 31 -91 69 -114 85 -41 27 -90 36 -102 17z"/>
<path d="M3986 7173 c-9 -22 10 -41 25 -26 13 13 5 43 -10 43 -5 0 -12 -8 -15
-17z"/>
<path d="M4416 7160 c-3 -16 -9 -43 -12 -60 -3 -16 -3 -30 0 -30 12 0 58 91
52 105 -9 26 -34 17 -40 -15z"/>
<path d="M5260 7175 c14 -16 40 -20 40 -6 0 9 -24 21 -42 21 -6 0 -6 -6 2 -15z"/>
<path d="M5321 7038 c-16 -44 11 -149 48 -182 24 -22 26 -44 10 -130 -9 -49
-8 -82 5 -172 22 -151 76 -312 76 -228 0 41 6 45 41 26 28 -16 31 -16 40 1 13
23 28 22 56 -5 l23 -21 0 77 0 77 35 15 c35 14 35 14 35 79 0 47 4 65 13 65
16 0 80 -66 97 -99 11 -22 10 -27 -14 -47 -32 -28 -33 -37 -2 -57 13 -9 32
-36 41 -60 11 -30 31 -55 59 -76 23 -18 73 -66 111 -108 85 -94 155 -131 209
-113 19 6 42 23 52 38 35 52 12 192 -34 206 -24 8 -57 68 -49 90 10 26 54 19
218 -36 l154 -52 165 -1 c182 0 205 6 285 76 40 36 43 56 14 93 -32 40 -66 53
-164 60 -151 10 -370 65 -348 87 4 4 47 13 95 19 108 13 164 33 203 70 17 16
52 36 79 44 128 39 199 139 151 212 -33 51 -55 51 -146 1 -133 -71 -314 -120
-383 -103 -38 9 -32 24 19 46 49 21 64 43 48 69 -16 25 -39 24 -65 -4 -29 -31
-101 -45 -230 -45 -111 0 -138 10 -138 50 0 44 -35 41 -57 -5 -22 -46 -7 -80
39 -90 62 -12 68 -16 94 -61 29 -50 46 -55 62 -19 15 32 23 31 53 -1 40 -44
101 -84 127 -84 l25 0 -23 26 c-36 37 -16 44 135 44 142 0 175 -5 175 -26 0
-34 -37 -51 -136 -64 -213 -26 -315 -91 -212 -133 50 -20 272 -74 363 -87 180
-26 197 -35 125 -64 -90 -36 -302 -47 -420 -22 -86 19 -283 103 -361 155 -69
46 -85 43 -75 -13 10 -51 88 -204 130 -252 42 -49 59 -90 51 -121 -12 -50
-114 -18 -205 64 -72 65 -129 189 -189 411 -8 29 -17 42 -30 42 -9 0 -28 11
-41 25 -13 14 -29 25 -35 25 -21 0 -53 -45 -88 -124 -19 -43 -41 -86 -50 -96
-8 -10 -24 -39 -36 -64 -16 -37 -25 -46 -45 -46 -33 0 -46 26 -46 91 0 33 -8
69 -21 97 l-22 44 27 54 c30 63 32 78 11 127 -8 20 -15 59 -15 86 l0 50 -42
-2 -43 -2 -5 42 c-8 53 -17 63 -29 31z m1643 -77 c7 -10 -22 -37 -30 -28 -9 8
3 37 15 37 5 0 12 -4 15 -9z"/>
<path d="M5170 7004 c0 -12 42 -75 47 -70 6 5 -24 63 -37 71 -5 3 -10 3 -10
-1z"/>
<path d="M4171 6882 c-58 -186 -114 -455 -109 -529 l4 -48 17 37 c18 40 51
182 62 268 4 30 17 105 30 165 12 61 25 125 29 143 10 57 -11 34 -33 -36z"/>
<path d="M5541 6901 c-1 -27 2 -32 11 -23 8 8 8 17 0 34 -10 22 -11 21 -11
-11z"/>
<path d="M6125 6828 c4 -13 11 -27 16 -32 15 -17 23 3 11 29 -15 32 -36 34
-27 3z"/>
<path d="M6255 6770 c-9 -15 4 -30 25 -30 13 0 17 5 14 14 -7 18 -32 28 -39
16z"/>
<path d="M5190 6641 c0 -19 23 -71 31 -71 12 0 11 10 -2 49 -10 28 -29 43 -29
22z"/>
<path d="M1769 6514 c-19 -23 -12 -86 17 -159 28 -69 43 -82 45 -37 2 41 2 41
-11 124 -13 78 -28 100 -51 72z"/>
<path d="M4602 6474 c1 -9 9 -19 16 -22 9 -3 13 2 10 14 -1 9 -9 19 -16 22 -9
3 -13 -2 -10 -14z"/>
<path d="M4725 6392 c-8 -41 12 -201 40 -313 43 -167 30 -249 -56 -365 -70
-94 -79 -115 -86 -188 -5 -53 -2 -72 16 -109 l22 -45 -21 -34 c-40 -66 -16
-65 65 3 66 54 147 99 181 99 28 0 39 15 54 68 8 33 18 46 38 53 25 9 28 14
28 62 0 61 29 147 49 147 23 0 36 -35 25 -65 -22 -58 -15 -95 80 -420 62 -213
73 -235 145 -314 l56 -60 31 34 c35 41 64 113 74 184 8 59 15 57 64 -14 26
-37 40 -76 55 -147 3 -16 11 -28 19 -28 10 0 12 13 9 48 -4 42 0 53 36 105 41
59 56 104 49 148 -3 21 -6 17 -28 -25 -33 -66 -49 -75 -87 -48 -51 36 -101
120 -119 197 -8 39 -24 93 -35 120 -10 28 -19 66 -19 85 0 24 -6 39 -19 47
-26 16 -43 99 -30 146 16 59 26 64 147 69 90 5 120 10 163 31 42 20 58 23 79
15 52 -19 110 -60 137 -95 27 -35 28 -36 33 -12 5 20 12 24 41 23 49 -1 231
-60 263 -85 30 -23 67 -92 116 -217 24 -61 43 -91 71 -115 38 -33 319 -198
437 -256 35 -18 66 -39 69 -47 3 -8 22 -23 43 -34 21 -11 52 -37 70 -60 31
-39 70 -54 70 -26 0 50 -192 219 -289 255 -106 38 -183 105 -168 144 3 8 23
18 44 21 50 10 146 64 205 115 79 70 87 180 17 246 l-30 30 -262 1 c-161 0
-293 5 -342 13 -107 17 -340 84 -420 120 -56 26 -67 35 -81 70 -23 58 -119
143 -212 187 -42 20 -84 43 -93 50 -14 13 -35 25 -151 86 -41 22 -103 21 -103
-1 0 -8 76 -52 181 -105 198 -100 265 -143 295 -193 41 -67 0 -93 -149 -93
-92 0 -104 4 -180 66 -66 54 -88 61 -114 37 -33 -30 -19 -110 62 -353 80 -240
94 -321 88 -492 -3 -85 -7 -111 -20 -125 -16 -16 -19 -16 -39 3 -49 44 -104
200 -134 377 -50 293 -90 439 -131 478 l-26 24 -18 -23 c-10 -12 -28 -53 -41
-90 -84 -258 -230 -423 -302 -344 -34 37 -7 143 55 217 38 46 63 99 109 241
23 71 51 149 62 173 18 38 19 49 9 87 -15 57 -15 84 1 85 6 1 40 2 74 4 73 3
148 22 164 41 16 20 3 48 -19 39 -20 -8 -168 -30 -259 -39 -55 -5 -62 -3 -68
13 -8 26 -63 101 -74 101 -5 0 -12 -13 -16 -28z m80 -136 c21 -31 40 -136 31
-170 -10 -41 -38 -29 -53 23 -7 25 -16 73 -19 108 -6 54 -4 63 9 63 9 0 24
-11 32 -24z m2058 -577 c48 -52 31 -119 -44 -175 -48 -36 -185 -104 -209 -104
-12 0 -28 7 -37 15 -10 11 -25 14 -49 9 -73 -14 -147 25 -160 84 -10 48 -26
82 -55 119 -16 20 -29 40 -29 45 0 16 68 38 117 38 26 0 92 -5 145 -12 83 -10
105 -10 160 4 82 21 126 15 161 -23z"/>
<path d="M6450 5596 c0 -25 12 -46 26 -46 17 0 18 14 4 41 -12 22 -30 25 -30
5z"/>
<path d="M6572 5568 c6 -16 36 -34 44 -25 9 9 -15 37 -33 37 -8 0 -13 -5 -11
-12z"/>
<path d="M2077 6295 c-32 -30 -47 -53 -47 -70 0 -14 3 -25 6 -25 25 0 124 105
124 132 0 22 -41 4 -83 -37z"/>
<path d="M5800 6245 c9 -36 19 -68 23 -71 13 -13 7 53 -8 89 -24 59 -32 50
-15 -18z"/>
<path d="M1540 6237 c0 -36 120 -177 151 -177 24 0 -25 102 -74 154 -34 35
-77 48 -77 23z"/>
<path d="M5717 6224 c-8 -9 11 -44 24 -44 6 0 9 10 7 22 -3 22 -19 34 -31 22z"/>
<path d="M5905 6175 c3 -11 11 -42 16 -70 15 -73 18 -80 30 -68 15 15 1 74
-28 119 -13 22 -22 30 -18 19z"/>
<path d="M2192 6136 c-63 -16 -82 -30 -63 -48 32 -33 241 8 229 44 -6 18 -101
20 -166 4z"/>
<path d="M5799 6089 c13 -11 26 -17 29 -14 8 8 -20 35 -37 35 -12 -1 -11 -5 8
-21z"/>
<path d="M2140 5915 c0 -30 155 -162 180 -153 17 5 -43 82 -101 128 -53 42
-79 50 -79 25z"/>
<path d="M1855 5888 c-3 -18 -2 -69 2 -113 11 -101 8 -113 -25 -117 -51 -6
-54 -26 -47 -337 6 -294 17 -437 34 -454 15 -15 190 -12 204 2 16 16 12 257
-8 500 -17 207 -23 239 -58 280 -19 23 -25 45 -30 106 -7 76 -37 165 -56 165
-6 0 -13 -15 -16 -32z m64 -275 c12 -10 26 -36 32 -58 8 -32 27 -451 29 -629
l0 -39 -51 5 c-61 6 -79 22 -90 80 -11 60 -11 591 0 622 9 21 21 29 52 35 4 0
17 -7 28 -16z"/>
<path d="M4700 5901 c0 -12 5 -21 10 -21 6 0 10 6 10 14 0 8 -4 18 -10 21 -5
3 -10 -3 -10 -14z"/>
<path d="M1510 5896 c-23 -8 -35 -19 -35 -32 0 -16 7 -19 42 -17 51 2 98 23
98 43 0 20 -59 23 -105 6z"/>
<path d="M2094 5766 c-11 -30 75 -151 94 -132 9 9 -7 51 -37 99 -31 48 -48 58
-57 33z"/>
<path d="M5700 5739 c0 -29 41 -120 51 -113 17 10 -20 134 -40 134 -6 0 -11
-9 -11 -21z"/>
<path d="M1611 5696 c-22 -22 -31 -40 -28 -51 6 -14 10 -14 35 -1 37 19 54 41
50 62 -5 29 -22 26 -57 -10z"/>
<path d="M5590 5718 c0 -20 24 -78 32 -78 11 0 10 48 -2 71 -12 21 -30 26 -30
7z"/>
<path d="M4330 5664 c0 -31 23 -28 28 4 2 15 -2 22 -12 22 -11 0 -16 -9 -16
-26z"/>
<path d="M2997 5643 c-10 -16 11 -39 23 -27 8 8 7 14 -4 23 -8 7 -17 8 -19 4z"/>
<path d="M5860 5600 c0 -11 5 -20 10 -20 6 0 10 9 10 20 0 11 -4 20 -10 20 -5
0 -10 -9 -10 -20z"/>
<path d="M5722 5497 c-58 -47 -65 -75 -37 -143 16 -38 35 -38 35 2 0 32 28 32
40 -2 12 -29 12 -354 1 -432 -7 -51 -12 -57 -125 -171 l-118 -118 31 -50 c50
-82 132 -133 210 -133 79 0 143 22 188 65 39 38 43 46 43 89 0 60 -15 88 -95
178 l-65 73 1 180 c0 215 6 260 34 260 28 0 43 -38 55 -143 12 -106 24 -140
118 -329 38 -76 79 -164 92 -196 39 -100 94 -99 120 0 6 26 16 99 21 162 12
141 30 185 76 189 38 4 53 -18 64 -93 4 -29 18 -68 33 -90 48 -70 59 -133 53
-288 -6 -154 -13 -174 -75 -206 -49 -26 -104 -84 -136 -146 -32 -63 -50 -85
-67 -85 -8 0 -64 50 -124 111 -153 153 -195 177 -195 108 0 -22 6 -32 24 -39
38 -14 96 -70 133 -127 18 -28 43 -55 55 -58 13 -4 31 -17 40 -28 9 -12 45
-33 79 -47 49 -20 69 -34 94 -70 43 -62 97 -97 264 -175 205 -96 238 -117 253
-167 6 -22 25 -52 41 -67 16 -14 45 -41 64 -59 20 -18 38 -30 41 -27 9 9 -18
113 -33 125 -8 7 -29 10 -45 8 -25 -4 -30 -2 -24 11 15 38 15 52 0 76 -24 37
-106 86 -230 139 -149 64 -186 84 -186 102 0 9 26 27 64 44 45 20 69 37 80 58
8 15 22 34 30 41 23 19 21 98 -3 141 -11 19 -27 49 -35 65 -8 17 -26 40 -40
52 -19 16 -26 33 -26 57 0 48 16 86 36 86 9 0 70 -56 135 -124 165 -172 207
-188 245 -91 15 40 15 53 5 100 -21 93 -91 297 -127 372 -24 48 -36 87 -37
120 l-2 48 65 -2 c58 -1 140 -24 140 -39 0 -3 -12 -16 -27 -29 l-28 -24 33 -1
c61 0 120 46 106 84 -8 20 -46 32 -161 52 -54 9 -142 31 -198 49 -55 18 -103
31 -107 28 -17 -9 -7 -32 25 -58 61 -50 77 -67 77 -85 0 -10 18 -56 40 -101
22 -46 40 -95 40 -109 0 -14 11 -46 24 -70 68 -124 86 -169 92 -226 7 -69 -5
-104 -37 -104 -45 0 -232 211 -271 305 -9 22 -37 107 -63 188 -51 159 -126
325 -169 370 -39 42 -65 33 -98 -33 -38 -76 -58 -158 -65 -270 -3 -52 -10
-103 -15 -114 -10 -18 -10 -18 -29 0 -10 11 -46 87 -80 169 -110 269 -111 273
-110 354 l1 74 -50 53 c-28 29 -50 58 -50 65 0 7 -20 38 -43 68 -24 31 -48 64
-53 73 -8 15 -15 13 -62 -25z m73 -731 c18 -13 18 -16 5 -42 -18 -32 -144
-144 -164 -144 -45 0 -16 101 47 168 34 35 79 43 112 18z m635 -552 c0 -18
-37 -74 -49 -74 -5 0 -6 12 -3 28 8 45 52 84 52 46z m-11 -175 c28 -37 31 -45
17 -47 -37 -8 -64 8 -76 43 -12 36 -6 59 13 52 7 -2 27 -23 46 -48z"/>
<path d="M4370 5448 c0 -59 97 -195 122 -170 15 15 -11 82 -57 145 -38 51 -65
61 -65 25z"/>
<path d="M6200 5440 c1 -14 7 -38 16 -55 l14 -30 -4 44 c-5 48 -26 83 -26 41z"/>
<path d="M2541 5418 c-5 -18 -15 -58 -21 -90 -6 -31 -25 -77 -42 -102 -17 -26
-28 -49 -25 -53 28 -27 106 120 114 217 6 66 -8 82 -26 28z"/>
<path d="M2952 5365 c0 -16 2 -22 5 -12 2 9 2 23 0 30 -3 6 -5 -1 -5 -18z"/>
<path d="M6090 5371 c0 -11 5 -23 10 -26 6 -4 10 5 10 19 0 14 -4 26 -10 26
-5 0 -10 -9 -10 -19z"/>
<path d="M7103 5364 c-6 -17 32 -158 53 -191 16 -26 42 -30 50 -9 8 20 -34
177 -53 198 -20 22 -42 23 -50 2z"/>
<path d="M4940 5354 c0 -36 31 -114 46 -114 19 0 17 24 -6 68 -32 62 -40 70
-40 46z"/>
<path d="M7472 5335 c-35 -30 -102 -117 -102 -134 0 -6 7 -11 16 -11 22 0 157
135 152 152 -8 23 -34 20 -66 -7z"/>
<path d="M5070 5281 c0 -21 13 -41 26 -41 17 0 18 22 2 38 -14 14 -28 16 -28
3z"/>
<path d="M4839 5254 c-46 -27 -99 -72 -99 -86 0 -15 27 -8 104 27 77 35 93 55
58 74 -14 7 -29 3 -63 -15z"/>
<path d="M3839 5133 c-21 -52 -25 -58 -63 -76 -25 -13 -44 -34 -61 -67 -30
-59 -41 -67 -64 -46 -27 24 -41 19 -41 -15 0 -41 -13 -63 -81 -137 -58 -62
-73 -92 -45 -92 21 0 123 97 203 191 l67 80 29 -31 c39 -41 48 -30 54 62 4 47
12 84 25 105 19 31 18 53 -3 53 -5 0 -14 -12 -20 -27z"/>
<path d="M7599 5125 c-44 -23 -99 -76 -99 -95 0 -23 26 -18 89 15 68 36 108
76 96 95 -10 16 -36 11 -86 -15z"/>
<path d="M4545 5030 c-3 -5 -10 -44 -15 -87 -10 -94 -20 -121 -54 -152 -33
-31 -46 -78 -46 -168 0 -77 -8 -87 -42 -56 -29 26 -23 -5 12 -61 38 -60 46
-95 26 -121 -20 -26 -40 -14 -83 49 -18 27 -33 43 -33 37 0 -17 27 -67 65
-120 39 -54 59 -123 47 -165 -11 -42 -28 -43 -48 -4 -25 48 -75 120 -81 115
-6 -7 86 -188 108 -213 11 -11 23 -41 27 -65 5 -28 13 -45 23 -47 25 -5 29 56
29 424 l0 333 38 10 c51 15 77 14 91 -3 22 -27 33 -201 29 -501 -3 -261 -1
-300 12 -300 27 0 52 65 44 115 -8 54 -8 72 1 405 4 149 3 275 -2 294 -7 26
-17 37 -41 45 -47 16 -53 27 -62 107 -5 41 -12 89 -15 107 -6 32 -18 41 -30
22z"/>
<path d="M4242 5015 c-44 -19 -32 -39 17 -30 56 10 101 26 101 36 0 14 -81 10
-118 -6z"/>
<path d="M4806 4997 c-23 -17 -13 -25 83 -67 54 -23 76 -29 84 -21 18 18 -3
43 -63 74 -60 30 -78 33 -104 14z"/>
<path d="M3417 4973 c-4 -3 -7 -19 -7 -35 0 -33 25 -39 33 -7 9 34 -8 61 -26
42z"/>
<path d="M5127 4938 c3 -18 11 -42 16 -53 10 -18 11 -18 15 -2 4 22 -17 87
-29 87 -4 0 -6 -15 -2 -32z"/>
<path d="M7516 4882 c-8 -13 -2 -17 114 -69 109 -50 143 -55 138 -20 -6 46
-229 125 -252 89z"/>
<path d="M4290 4833 c-28 -23 -30 -27 -15 -36 21 -11 71 -2 103 19 19 12 21
18 11 30 -18 22 -64 17 -99 -13z"/>
<path d="M6352 4833 c2 -9 9 -18 16 -21 18 -6 15 25 -4 32 -11 4 -14 1 -12
-11z"/>
<path d="M7289 4838 c-1 -2 -5 -63 -8 -137 l-6 -134 -30 -17 c-18 -10 -33 -29
-39 -49 -6 -21 -5 -162 2 -390 12 -352 17 -421 32 -421 16 0 20 74 21 394 0
182 3 349 7 371 9 48 32 55 100 30 l45 -18 -6 -81 c-4 -44 -12 -223 -18 -396
-13 -332 -9 -380 24 -329 27 41 36 143 43 502 8 374 8 366 -42 367 -47 0 -56
19 -70 158 -7 72 -15 136 -19 142 -5 9 -32 14 -36 8z"/>
<path d="M7490 4743 c0 -9 23 -42 50 -74 28 -32 57 -74 65 -92 15 -35 31 -47
53 -40 37 14 -3 89 -90 168 -65 59 -78 65 -78 38z"/>
<path d="M5302 4738 c-14 -14 -16 -38 -3 -38 10 0 26 39 19 46 -2 2 -10 -2
-16 -8z"/>
<path d="M3289 4689 c-7 -14 -8 -24 -1 -31 15 -15 32 0 32 28 0 30 -15 31 -31
3z"/>
<path d="M5060 4615 c5 -13 26 -48 45 -77 20 -29 39 -65 42 -80 3 -15 10 -28
15 -28 20 0 -12 90 -42 120 -12 12 -28 37 -36 56 -16 39 -39 48 -24 9z"/>
<path d="M3611 4603 c-7 -15 -16 -68 -20 -118 -4 -50 -12 -98 -17 -107 -5 -9
-28 -30 -51 -47 -66 -48 -70 -64 -29 -106 37 -36 73 -132 62 -161 -15 -38 -71
-29 -118 20 -49 49 -72 59 -129 51 l-49 -7 0 -154 c0 -85 -6 -198 -14 -252 -8
-53 -20 -151 -26 -216 -13 -134 -40 -233 -74 -273 -33 -39 -57 -27 -45 24 20
88 5 466 -22 571 -12 45 -60 95 -87 90 -35 -7 -53 -53 -72 -188 -21 -142 -51
-250 -76 -271 -12 -10 -18 -9 -32 5 -13 13 -17 35 -18 91 0 59 -5 81 -20 103
-24 32 -175 143 -188 139 -14 -5 -24 -49 -37 -167 -7 -58 -17 -108 -23 -112
-18 -12 -54 -9 -68 6 -8 8 -23 16 -34 18 -17 3 -20 15 -26 106 -4 68 -12 112
-23 128 -28 42 -36 18 -33 -94 l3 -106 -38 -18 c-54 -26 -59 -49 -41 -170 17
-111 14 -370 -5 -420 -8 -21 -6 -29 9 -43 17 -16 18 -19 3 -50 -15 -31 -14
-34 11 -71 14 -21 26 -49 26 -62 0 -31 41 -45 106 -37 60 7 83 27 115 99 19
44 20 54 9 108 -12 65 -17 360 -6 396 15 47 56 13 56 -47 0 -38 17 -84 29 -77
4 3 10 52 13 108 3 69 10 114 21 135 24 45 21 57 -13 70 -36 14 -51 47 -53
125 -2 77 15 96 65 75 19 -8 44 -27 56 -42 23 -28 30 -75 12 -75 -16 0 -12
-35 11 -87 12 -26 24 -82 28 -123 l6 -75 40 -3 c56 -4 78 22 109 132 32 111
66 272 67 323 1 55 12 87 31 91 22 4 27 -21 40 -223 8 -139 8 -211 -2 -317
-13 -151 -9 -191 23 -213 52 -36 111 -1 137 82 24 76 53 133 66 133 23 0 35
-75 32 -197 l-3 -118 -84 -42 c-91 -45 -110 -62 -146 -137 l-24 -49 20 -28
c37 -52 113 -122 154 -140 56 -26 84 -24 148 11 31 17 63 30 70 30 45 0 104
88 114 168 8 75 -15 117 -80 147 -111 51 -108 33 -127 680 -5 187 -13 314 -21
338 -11 32 -10 43 5 74 l17 36 37 -36 c61 -59 117 -71 192 -41 40 16 42 16 66
-7 21 -20 27 -21 34 -9 11 17 13 71 4 95 -4 9 -18 21 -31 26 -25 9 -83 117
-83 154 0 11 16 33 36 48 43 35 94 104 94 128 0 10 -17 34 -37 54 -35 34 -37
40 -35 91 1 30 1 54 -1 54 -2 0 -9 -12 -16 -27z m-1163 -1108 c23 -23 31 -671
9 -714 -6 -13 -29 -30 -49 -37 -65 -22 -59 -60 -83 568 l-7 178 24 10 c23 10
94 7 106 -5z m160 -37 c-3 -25 -34 -36 -51 -19 -14 14 9 41 35 41 14 0 19 -6
16 -22z m685 -575 c20 -23 40 -99 32 -124 -9 -29 -50 -52 -77 -44 -31 10 -88
65 -88 85 0 17 36 54 80 83 31 21 33 21 53 0z m147 -148 c0 -15 -43 -12 -48 3
-3 10 4 13 22 10 15 -2 26 -7 26 -13z"/>
<path d="M4188 4603 c-9 -10 -33 -56 -55 -103 -22 -47 -61 -110 -86 -139 -26
-30 -51 -70 -57 -89 -5 -19 -21 -52 -36 -74 -31 -45 -122 -120 -138 -115 -6 2
-12 16 -14 31 -3 22 -6 25 -18 15 -18 -15 -17 -47 1 -79 8 -14 14 -33 15 -42
0 -25 -53 -82 -104 -112 -110 -65 -252 -277 -205 -307 22 -14 158 -10 229 7
36 9 88 18 115 21 62 6 95 -16 126 -85 25 -55 38 -39 15 19 -28 69 -18 126 25
149 16 9 26 8 46 -5 21 -14 24 -22 19 -48 l-6 -32 23 28 c36 42 47 35 47 -31
0 -92 -62 -246 -109 -272 -25 -13 -40 -57 -52 -154 -15 -122 -104 -277 -188
-331 -48 -30 -84 -98 -79 -152 2 -31 8 -39 31 -47 43 -15 129 7 244 64 56 27
109 50 117 50 15 0 56 -50 56 -69 0 -6 9 -15 20 -21 28 -15 26 -4 -16 83 -29
62 -34 79 -24 96 14 28 26 26 55 -6 33 -40 41 -22 21 44 l-18 57 26 23 c15 13
40 23 55 23 28 0 28 -1 36 -77 5 -43 9 -431 9 -863 1 -731 2 -788 19 -813 28
-43 22 -65 -18 -73 -34 -6 -154 2 -182 13 -8 3 -13 22 -13 49 0 71 -47 100
-145 92 -35 -3 -40 -6 -40 -28 0 -25 6 -28 88 -45 20 -4 27 -11 27 -29 0 -43
-20 -48 -193 -54 -184 -5 -185 -5 -194 70 -8 80 -12 89 -48 104 -51 21 -102
18 -115 -7 -14 -26 4 -52 31 -44 44 14 79 -27 79 -92 0 -35 -28 -41 -206 -45
l-159 -3 -7 74 c-11 110 -39 141 -115 126 -27 -5 -38 -13 -49 -42 -16 -37 -15
-64 1 -64 6 0 12 10 15 23 7 29 39 36 57 12 7 -10 13 -44 13 -75 l0 -57 -74
-7 c-112 -11 -222 -3 -242 17 -9 9 -23 45 -31 79 -8 35 -24 79 -35 98 -12 18
-25 54 -29 79 -11 55 -49 108 -95 130 -26 12 -37 13 -46 4 -19 -19 -13 -107
11 -145 29 -47 27 -58 -12 -55 -18 1 -38 -1 -44 -5 -24 -15 -35 -125 -43 -449
-10 -355 -20 -438 -61 -505 -30 -49 -69 -65 -143 -61 l-61 3 -29 -60 c-39 -80
-46 -166 -16 -213 38 -61 68 -66 290 -53 260 15 600 16 2020 6 657 -5 1437 -8
1732 -7 586 2 597 3 618 57 35 92 -30 248 -113 274 -18 5 -70 12 -116 15 -46
4 -96 13 -112 21 -50 26 -53 58 -41 412 11 321 7 528 -10 550 -5 6 -23 15 -39
18 -27 6 -29 10 -29 51 0 105 -84 169 -150 116 -18 -14 -25 -34 -31 -85 -5
-36 -17 -84 -29 -106 -13 -27 -20 -60 -20 -100 0 -36 -5 -63 -12 -67 -7 -4
-49 -10 -94 -12 -78 -4 -84 -3 -108 21 -23 23 -26 35 -26 91 0 36 -5 68 -11
71 -19 12 -163 17 -179 6 -25 -17 9 -41 68 -48 35 -4 53 -11 56 -22 7 -24 11
-120 4 -126 -3 -3 -74 -1 -158 3 -142 9 -155 11 -172 32 -11 14 -18 38 -18 64
0 31 -6 48 -23 64 -26 24 -87 52 -115 52 -29 0 -70 -37 -77 -70 -10 -47 3 -54
41 -20 42 37 57 37 90 4 20 -19 24 -31 19 -52 -3 -15 -10 -31 -15 -36 -11 -11
-285 -29 -327 -21 -38 7 -57 36 -50 73 12 61 -42 102 -136 102 -87 0 -88 -27
-2 -51 73 -20 97 -66 54 -104 -16 -15 -47 -21 -155 -29 -81 -5 -138 -6 -144 0
-23 23 -33 185 -35 529 -1 198 -5 376 -9 395 -9 42 5 85 33 99 17 9 27 4 67
-30 54 -46 81 -59 129 -59 57 0 75 25 82 110 7 92 -13 395 -33 505 -8 44 -19
116 -25 160 -5 44 -17 111 -25 148 l-16 68 27 39 c15 22 33 44 40 50 11 9 4
28 -32 91 -48 86 -67 159 -41 159 7 0 33 -18 57 -40 23 -22 86 -70 139 -106
93 -64 100 -67 172 -73 l75 -6 8 -125 c4 -68 6 -129 3 -136 -2 -6 -28 -20 -58
-30 -77 -27 -143 -94 -156 -159 -21 -99 22 -205 98 -247 91 -50 265 27 326
144 41 78 5 211 -63 233 -67 22 -93 69 -96 175 -2 81 10 90 111 89 92 -1 125
18 130 74 4 47 -22 96 -98 187 -94 112 -95 117 -92 249 2 100 6 119 27 156 28
47 33 95 11 95 -8 0 -27 -5 -43 -11 -15 -6 -57 -14 -93 -17 -80 -9 -87 -28
-17 -49 56 -16 67 -36 67 -123 0 -80 -13 -110 -46 -110 -66 0 -264 132 -299
199 -8 16 -23 32 -33 36 -21 6 -52 -3 -52 -15 0 -31 139 -147 320 -266 100
-65 143 -102 213 -179 71 -78 88 -102 85 -123 -7 -57 -74 -63 -210 -16 -39 13
-84 24 -98 24 -29 0 -87 38 -134 89 -17 17 -36 31 -43 31 -7 0 -44 28 -83 63
-121 106 -139 117 -185 117 -70 0 -92 -46 -60 -124 25 -58 55 -259 64 -416 7
-139 9 -147 39 -198 39 -65 41 -85 8 -76 -13 3 -27 1 -30 -4 -9 -15 4 -41 18
-36 21 8 36 -43 36 -117 0 -40 9 -106 21 -152 25 -94 30 -230 11 -264 -7 -13
-21 -23 -31 -23 -48 0 -110 89 -111 158 0 18 -13 61 -30 95 -16 34 -47 125
-69 202 -22 77 -50 167 -62 200 -14 39 -22 90 -24 145 -1 47 -10 107 -19 133
-9 26 -19 94 -22 150 -7 112 -17 138 -65 162 -27 14 -33 15 -53 2 -26 -17 -78
-93 -130 -189 -20 -36 -64 -103 -99 -148 -34 -44 -82 -110 -107 -145 -67 -95
-86 -112 -161 -140 -37 -15 -80 -36 -95 -47 -20 -16 -30 -19 -43 -11 -30 19
-22 39 57 133 44 52 87 111 97 130 10 19 28 42 41 52 28 23 51 90 64 193 8 60
17 89 38 118 76 108 88 135 111 246 20 94 22 126 16 208 -11 146 -7 144 -102
58 -105 -94 -140 -114 -293 -165 -130 -43 -251 -62 -264 -41 -15 24 4 47 351
421 63 68 121 141 133 168 12 26 52 96 88 156 82 137 121 236 94 236 -5 0 -16
-8 -24 -17z m180 -1415 c19 -19 15 -48 -7 -48 -21 0 -33 22 -25 45 7 18 16 19
32 3z m141 -162 c17 -20 25 -82 13 -90 -19 -11 -41 5 -52 38 -17 53 9 88 39
52z m-70 -100 c20 -23 -12 -66 -48 -66 -17 0 -13 41 6 62 19 22 27 22 42 4z
m869 -88 c20 -20 13 -55 -20 -98 -67 -85 -118 -89 -118 -8 0 50 13 74 53 98
37 23 68 25 85 8z m-818 -42 c-24 -64 -72 -146 -85 -146 -21 0 -29 46 -16 90
13 44 52 80 87 80 21 0 22 -3 14 -24z m10 -181 c0 -16 -27 -32 -37 -21 -7 7
16 36 28 36 5 0 9 -7 9 -15z m17 -91 c10 -26 -14 -64 -41 -64 -34 0 -41 28
-15 57 26 27 47 30 56 7z m-99 -116 c21 -21 14 -57 -13 -70 -37 -17 -50 0 -35
46 12 37 27 45 48 24z m172 -79 c0 -10 -4 -19 -10 -19 -5 0 -10 12 -10 26 0
14 4 23 10 19 6 -3 10 -15 10 -26z m120 -40 c0 -28 -30 -59 -59 -59 -11 0 -12
10 -7 45 3 25 11 55 17 67 l12 22 18 -23 c11 -13 19 -36 19 -52z m-207 1 l-6
-50 47 0 c40 0 47 -3 44 -17 -2 -13 -14 -19 -41 -21 -45 -4 -49 -24 -11 -63
28 -29 54 -112 54 -176 0 -37 -4 -44 -30 -58 -32 -17 -36 -30 -44 -157 -2 -42
-10 -86 -16 -98 -16 -29 2 -70 29 -70 24 0 33 -13 25 -34 -10 -25 -93 -21
-135 7 -50 34 -52 76 -4 128 38 43 41 62 9 68 -58 10 -58 56 0 119 68 74 69
75 61 247 -8 152 -3 225 15 225 5 0 6 -22 3 -50z m-56 -215 c-3 -16 -8 -41
-11 -55 -3 -14 -8 -42 -11 -62 -4 -26 -11 -38 -22 -38 -13 0 -15 8 -9 53 4 28
9 92 13 141 l6 89 19 -49 c12 -29 17 -61 15 -79z m-1753 -580 c21 -31 20 -59
-1 -80 -16 -16 -18 -16 -35 5 -20 25 -23 52 -8 81 14 25 24 24 44 -6z m1734
-11 c-4 -21 -44 -48 -52 -36 -8 13 22 52 40 52 9 0 14 -7 12 -16z m1907 -4
c14 -44 -15 -76 -43 -48 -23 23 -7 68 24 68 7 0 16 -9 19 -20z m-1907 -103 c2
-10 -4 -20 -13 -23 -21 -9 -28 0 -20 26 8 24 28 22 33 -3z m81 -72 c31 -16 41
-33 41 -73 0 -36 -35 -92 -58 -92 -46 0 -85 89 -68 154 7 30 40 35 85 11z
m-1777 -412 c-2 -225 -7 -439 -10 -477 -7 -69 -7 -70 -41 -79 -47 -12 -77 3
-85 43 -8 43 -8 724 1 824 7 88 13 94 93 95 l46 1 -4 -407z m3676 -50 c-3
-247 -9 -456 -13 -466 -8 -19 -23 -23 -107 -31 l-58 -5 0 307 c1 378 13 621
32 633 7 5 44 9 82 9 l69 0 -5 -447z m-2360 255 c6 -7 12 -35 13 -61 l3 -49
-169 2 c-223 1 -245 7 -245 61 0 15 6 31 13 36 34 22 368 31 385 11z m1392 -1
c34 -17 39 -68 9 -98 -20 -20 -28 -21 -103 -15 -44 4 -120 10 -167 14 -92 7
-119 20 -119 57 0 46 23 51 220 53 91 1 143 -2 160 -11z m-2276 -19 c8 -13 18
-42 22 -64 l6 -41 -168 5 c-93 2 -185 10 -204 16 -39 12 -49 39 -26 71 12 17
30 21 133 26 232 11 221 11 237 -13z m1380 6 c23 -22 20 -41 -11 -61 -22 -14
-55 -18 -187 -21 -179 -4 -216 3 -216 42 0 49 19 53 232 55 139 1 169 -2 182
-15z m456 -5 c16 -29 5 -65 -22 -73 -29 -7 -316 -8 -345 0 -47 13 -35 67 20
83 17 5 100 10 184 10 145 1 153 0 163 -20z m800 11 c106 -20 131 -49 71 -84
-25 -14 -58 -20 -131 -24 -116 -5 -181 3 -211 27 -19 15 -20 20 -10 40 7 12
27 29 44 36 38 17 162 19 237 5z m273 -4 c95 -15 123 -31 112 -65 -8 -26 -45
-33 -150 -29 l-80 3 -3 53 c-4 60 -11 58 121 38z m-2503 -9 c13 -7 29 -25 35
-41 17 -48 -7 -56 -169 -56 -159 0 -189 9 -194 54 -7 55 -5 56 155 56 99 0
156 -4 173 -13z m988 -386 c-3 -240 -6 -282 -21 -304 -19 -29 -70 -47 -136
-47 l-43 0 6 138 c16 320 32 452 59 469 11 7 75 18 121 22 18 1 18 -10 14
-278z m432 233 c11 -28 13 -374 4 -501 l-7 -81 -56 -4 c-78 -5 -88 -1 -95 37
-4 18 -22 52 -40 76 -64 82 -106 233 -106 378 0 101 7 106 124 98 61 -5 87 -3
106 8 38 21 59 18 70 -11z m-945 3 c17 -13 17 -21 6 -135 -6 -66 -11 -179 -11
-250 0 -190 1 -188 -74 -201 -100 -17 -128 -14 -172 19 -21 16 -49 30 -60 30
-12 0 -32 8 -44 18 -21 17 -23 30 -32 198 -10 192 -6 266 18 302 14 22 20 23
127 20 l112 -3 5 -60 c4 -46 9 -61 22 -63 14 -3 17 4 16 44 0 40 4 52 26 71
32 27 36 28 61 10z m223 -3 c29 -20 29 -56 -4 -230 -28 -148 -50 -205 -108
-269 -29 -33 -37 -37 -45 -25 -17 25 -24 139 -18 280 7 170 21 238 50 250 35
14 101 11 125 -6z m-1250 -15 c28 -6 49 -6 62 1 30 16 65 12 86 -11 18 -20 19
-39 18 -268 0 -170 -4 -253 -13 -268 -15 -29 -53 -39 -91 -23 -35 15 -45 52
-36 138 l6 57 -24 -66 c-31 -86 -46 -109 -73 -109 -65 0 -105 148 -128 471
l-7 96 78 -4 c44 -2 98 -8 122 -14z m558 7 c18 -13 19 -30 22 -228 1 -117 -1
-244 -5 -283 l-8 -70 -105 -3 c-60 -2 -115 2 -130 8 -14 6 -40 37 -59 68 l-34
57 -5 227 -4 227 53 4 c144 10 256 7 275 -7z m1690 -2 c60 -15 66 -15 83 0 9
9 30 16 45 16 43 0 49 -31 54 -305 5 -292 10 -277 -98 -283 -103 -6 -170 12
-225 60 -72 63 -72 64 -67 311 l4 217 70 0 c38 0 98 -7 134 -16z m605 -11 c19
-23 16 -542 -3 -555 -7 -4 -31 -7 -53 -6 -39 3 -40 4 -45 48 -10 84 -33 90
-45 13 -9 -64 -21 -83 -49 -83 -25 0 -75 49 -113 111 -27 42 -50 170 -59 319
-6 93 -4 113 10 135 15 23 22 25 87 25 65 0 111 -12 150 -41 12 -9 21 -5 46
20 35 35 54 39 74 14z m280 -3 c17 -10 19 -22 18 -153 -1 -195 -14 -376 -28
-390 -16 -16 -156 -16 -172 0 -16 16 -32 319 -24 441 7 100 2 91 70 105 40 9
117 7 136 -3z m-3554 -630 c75 -5 149 -16 170 -25 27 -12 38 -12 44 -4 7 12
264 15 344 3 22 -3 60 -1 85 5 29 6 48 6 56 0 8 -6 27 -6 55 0 67 16 128 13
213 -9 58 -15 83 -17 97 -9 37 19 371 29 1314 38 913 9 1648 2 1710 -17 36
-10 55 -43 55 -94 0 -27 -5 -40 -20 -48 -40 -22 -431 -27 -1240 -18 -454 5
-838 9 -855 9 -16 0 -142 -4 -280 -7 -226 -6 -1054 5 -1780 24 -249 6 -280 9
-283 24 -2 9 10 46 27 82 l30 67 63 -6 c35 -3 123 -10 195 -15z"/>
<path d="M4865 810 c-10 -16 -10 -197 -1 -229 16 -48 29 -2 29 102 0 103 -12
154 -28 127z"/>
<path d="M5314 836 c-3 -13 -4 -35 -2 -47 3 -23 4 -23 21 8 9 18 17 39 17 48
0 24 -29 17 -36 -9z"/>
<path d="M5314 736 c-9 -22 2 -46 21 -46 12 0 15 8 13 27 -3 30 -25 42 -34 19z"/>
<path d="M5737 624 c-10 -11 -9 -52 2 -59 17 -10 32 30 18 49 -7 9 -16 14 -20
10z"/>
<path d="M2975 205 c-19 -15 -19 -15 10 -13 17 2 29 7 28 13 -3 16 -18 16 -38
0z"/>
<path d="M2375 195 c-29 -13 -27 -14 45 -12 42 1 75 6 75 12 0 16 -87 16 -120
0z"/>
<path d="M6399 200 c-37 -24 133 -41 201 -21 20 7 15 9 -30 14 -104 12 -159
14 -171 7z"/>
<path d="M3800 180 c0 -5 6 -10 14 -10 8 0 18 5 21 10 3 6 -3 10 -14 10 -12 0
-21 -4 -21 -10z"/>
<path d="M5197 179 c-25 -14 -21 -29 8 -29 15 0 25 6 25 14 0 21 -12 26 -33
15z"/>
<path d="M5515 180 c-4 -6 5 -10 20 -10 15 0 24 4 20 10 -3 6 -12 10 -20 10
-8 0 -17 -4 -20 -10z"/>
<path d="M5998 183 c6 -2 18 -2 25 0 6 3 1 5 -13 5 -14 0 -19 -2 -12 -5z"/>
<path d="M5262 168 c3 -7 15 -14 29 -16 23 -2 23 -2 5 13 -24 18 -39 20 -34 3z"/>
<path d="M7046 4567 c-42 -24 -65 -51 -53 -64 11 -11 97 38 115 65 13 20 13
22 -4 22 -11 0 -37 -10 -58 -23z"/>
<path d="M3912 4465 c0 -16 2 -22 5 -12 2 9 2 23 0 30 -3 6 -5 -1 -5 -18z"/>
<path d="M2570 4452 c0 -28 25 -56 44 -49 23 9 20 33 -6 51 -29 21 -38 20 -38
-2z"/>
<path d="M5284 4420 c3 -14 6 -33 6 -42 0 -10 5 -18 10 -18 15 0 12 31 -6 60
l-15 25 5 -25z"/>
<path d="M4812 4418 c-45 -45 22 -80 253 -133 175 -41 172 -40 265 -93 74 -43
102 -80 80 -107 -17 -21 -44 -19 -297 21 -232 37 -245 31 -207 -97 21 -73 34
-84 34 -28 0 69 9 89 38 89 17 0 40 -15 69 -45 36 -38 43 -42 43 -25 0 14 11
26 35 36 35 14 110 9 218 -16 71 -16 80 -13 130 46 53 64 61 94 22 94 -29 0
-178 75 -232 117 -58 46 -73 51 -167 63 -101 12 -192 43 -209 71 -13 21 -57
25 -75 7z"/>
<path d="M3892 4380 c0 -14 2 -19 5 -12 2 6 2 18 0 25 -3 6 -5 1 -5 -13z"/>
<path d="M5717 4303 c-8 -12 34 -133 58 -169 31 -46 30 -8 -2 87 -26 77 -44
102 -56 82z"/>
<path d="M3880 4261 c-14 -27 -13 -51 4 -51 15 0 26 21 26 51 0 25 -16 24 -30
0z"/>
<path d="M5600 4247 c0 -32 23 -67 36 -54 10 10 -10 80 -24 85 -8 2 -12 -8
-12 -31z"/>
<path d="M4804 4246 c-9 -23 14 -126 28 -126 7 0 9 21 4 62 -7 66 -21 94 -32
64z"/>
<path d="M3140 4205 c-13 -16 -8 -94 7 -118 9 -15 20 31 22 91 1 44 -8 52 -29
27z"/>
<path d="M2527 4161 c-40 -38 -49 -53 -40 -62 15 -15 64 19 92 65 40 65 17 63
-52 -3z"/>
<path d="M4204 4167 c-11 -30 53 -113 73 -94 6 7 -32 81 -51 96 -13 11 -17 11
-22 -2z"/>
<path d="M5642 4139 c1 -12 9 -24 16 -27 9 -3 13 3 10 19 -1 12 -9 24 -16 27
-9 3 -13 -3 -10 -19z"/>
<path d="M5778 4058 c-25 -19 -28 -20 -59 -4 -17 9 -36 16 -40 16 -4 0 -5 -24
-2 -52 4 -46 1 -58 -21 -88 -52 -71 -68 -111 -73 -185 -7 -84 19 -188 61 -246
14 -19 35 -52 47 -73 21 -38 115 -146 128 -146 4 0 15 15 26 33 17 28 19 52
20 207 0 154 2 179 18 204 13 20 22 25 29 18 6 -6 14 -111 20 -254 9 -256 14
-303 28 -278 14 26 30 180 30 291 0 152 25 197 81 143 30 -28 59 -100 59 -144
0 -14 -15 -58 -34 -97 -30 -62 -56 -155 -56 -199 0 -28 32 -44 86 -44 52 0 57
2 113 54 118 109 135 108 144 -5 3 -39 11 -76 16 -83 6 -7 24 -71 41 -142 55
-233 102 -348 167 -404 48 -43 70 -39 94 15 29 65 42 206 36 393 -2 95 0 165
5 168 16 10 56 -36 74 -83 15 -39 16 -53 4 -131 -9 -56 -13 -172 -12 -324 1
-131 -2 -247 -6 -258 -4 -10 -34 -41 -67 -67 -88 -71 -125 -124 -125 -179 0
-38 6 -51 41 -89 141 -153 361 -115 415 72 27 92 -3 151 -99 198 -22 11 -50
33 -61 48 -20 27 -21 41 -21 330 0 263 2 311 18 369 11 37 28 75 39 85 20 18
21 17 47 -14 44 -53 181 -341 181 -381 0 -28 87 -197 129 -249 69 -88 146
-117 187 -72 29 32 25 133 -9 234 -30 90 -79 314 -71 327 10 16 30 8 84 -37
141 -116 205 -158 330 -220 74 -37 168 -90 209 -117 125 -85 247 -126 388
-130 58 -2 76 2 121 27 99 54 185 178 155 223 -9 14 -27 17 -118 14 -120 -3
-152 5 -292 69 -95 43 -178 95 -248 154 -27 23 -80 62 -117 88 -37 26 -84 68
-104 93 -21 25 -48 50 -61 55 -29 11 -30 44 -3 59 11 6 89 15 173 20 168 9
208 19 332 83 108 56 173 122 209 212 33 84 44 162 24 187 -21 28 -73 34 -92
12 -86 -101 -100 -113 -163 -142 -155 -71 -355 -108 -548 -100 -90 3 -108 7
-136 27 -31 23 -32 23 -143 11 -124 -14 -223 -3 -241 26 -28 45 -44 59 -55 47
-22 -20 35 -180 76 -214 16 -13 17 -12 12 9 -4 14 -2 22 6 22 16 0 46 -32 46
-48 0 -17 7 -15 30 8 25 25 79 26 122 4 28 -15 30 -15 25 0 -4 9 -4 23 0 32 6
15 63 18 213 12 125 -6 244 0 320 16 129 26 257 72 340 122 41 24 83 44 92 44
77 0 -44 -180 -158 -236 -50 -24 -58 -25 -82 -13 -15 7 -30 15 -35 17 -4 2
-12 -10 -18 -27 -20 -58 -100 -77 -184 -45 -71 27 -82 28 -95 4 -11 -20 -18
-22 -65 -17 -40 4 -57 2 -66 -9 -6 -8 -25 -14 -41 -14 -53 0 -50 -69 5 -98 18
-9 70 -56 117 -103 47 -48 106 -101 131 -117 25 -17 81 -60 124 -97 43 -37 90
-72 104 -78 14 -6 51 -25 81 -43 74 -44 215 -84 325 -92 88 -7 90 -8 93 -34 4
-36 -25 -54 -119 -74 -75 -16 -89 -15 -217 6 -57 10 -77 18 -88 36 -10 15 -32
26 -64 33 -56 12 -388 182 -423 216 -12 12 -38 30 -57 40 -49 25 -133 89 -203
153 -55 50 -60 53 -80 39 -53 -35 -61 -118 -22 -240 14 -43 25 -89 25 -103 0
-14 14 -59 30 -101 46 -115 37 -214 -17 -185 -38 21 -203 335 -203 388 0 28
-77 269 -101 316 -11 21 -28 42 -38 48 -31 16 -87 12 -130 -11 -35 -18 -45
-19 -75 -9 -19 6 -40 18 -47 26 -31 37 -105 56 -139 35 -16 -11 -16 -74 0
-271 15 -181 13 -330 -4 -330 -25 0 -52 46 -89 147 -54 148 -76 231 -91 342
-19 133 -48 218 -93 270 -47 56 -68 52 -109 -19 -36 -62 -128 -154 -147 -147
-7 2 -13 21 -15 43 -2 31 5 51 32 93 45 69 63 147 48 198 -17 57 -63 121 -93
132 -15 5 -35 21 -44 35 -10 14 -23 26 -30 26 -7 0 -37 18 -66 40 -62 46 -82
49 -105 15 -24 -36 -33 -84 -44 -234 -11 -161 -22 -182 -69 -137 -39 38 -90
143 -103 215 -18 96 22 198 128 328 24 29 44 60 44 68 0 18 1 18 -32 -7z
m1002 -1827 c0 -11 -28 -41 -39 -41 -18 0 -20 15 -4 32 17 19 43 24 43 9z m71
-169 c31 -26 20 -52 -24 -52 -39 0 -57 15 -57 47 0 19 5 23 29 23 16 0 39 -8
52 -18z"/>
<path d="M4730 4056 c0 -7 10 -28 23 -47 17 -26 30 -34 52 -34 28 0 30 3 30
35 0 34 -1 35 -36 32 -26 -2 -38 1 -42 12 -8 20 -27 21 -27 2z"/>
<path d="M2860 3990 c0 -15 5 -20 18 -18 9 2 17 10 17 18 0 8 -8 16 -17 18
-13 2 -18 -3 -18 -18z"/>
<path d="M5177 3964 c-9 -10 4 -34 19 -34 8 0 14 9 14 20 0 19 -19 27 -33 14z"/>
<path d="M4323 3923 c-16 -6 -17 -37 -2 -65 19 -35 81 -113 97 -122 29 -17
192 -12 248 7 57 20 79 39 89 78 8 33 -10 47 -34 25 -44 -40 -230 -46 -294 -9
-18 10 -40 35 -50 56 -18 36 -28 41 -54 30z"/>
<path d="M2070 3891 c-35 -10 -38 -39 -5 -47 30 -7 98 2 128 18 20 10 20 11 2
24 -20 15 -82 17 -125 5z"/>
<path d="M6214 3828 c-7 -11 29 -48 47 -48 9 0 1 28 -14 48 -12 15 -24 15 -33
0z"/>
<path d="M6400 3690 c0 -24 179 -140 216 -140 13 0 28 -9 34 -21 13 -23 55
-23 55 1 0 16 -9 21 -139 80 -49 22 -104 52 -122 65 -35 27 -44 30 -44 15z"/>
<path d="M1855 3684 c-5 -2 -132 -12 -280 -23 -268 -20 -288 -22 -333 -44 -20
-9 -72 -91 -72 -112 0 -3 25 -32 55 -65 30 -33 55 -67 55 -75 0 -36 -108 -109
-234 -159 -98 -39 -266 -59 -441 -52 -77 2 -154 8 -170 11 -30 6 -31 5 -48
-47 -21 -68 -24 -122 -8 -142 21 -25 120 -57 194 -63 79 -7 101 -22 87 -58
-19 -50 -45 -77 -125 -130 -101 -68 -199 -113 -273 -126 -32 -6 -77 -19 -102
-29 -25 -10 -57 -21 -72 -24 -34 -8 -80 -83 -82 -134 -1 -35 1 -37 59 -61 77
-32 221 -37 252 -9 37 34 114 59 201 67 48 5 113 18 145 30 33 12 93 29 135
37 130 26 166 41 197 82 37 48 133 130 180 153 43 21 59 39 84 94 10 22 38 64
62 94 89 109 126 161 144 200 21 47 52 62 72 35 18 -25 16 -40 -13 -109 -14
-33 -34 -84 -44 -113 -38 -105 -189 -343 -290 -457 -34 -38 -69 -83 -77 -98
-13 -26 -13 -31 4 -49 54 -60 117 -60 196 0 29 21 73 51 99 65 76 44 318 316
318 359 0 22 106 232 125 248 9 7 18 10 21 7 9 -8 23 -326 23 -513 l1 -151
-52 -24 c-71 -33 -125 -74 -148 -112 -24 -39 -26 -107 -4 -153 22 -46 99 -131
127 -140 12 -3 30 -13 39 -21 15 -14 23 -13 73 2 75 24 152 72 189 118 23 29
31 50 34 95 8 109 -42 183 -154 227 l-41 16 -6 367 c-4 229 -11 386 -19 417
-23 95 -7 175 38 192 53 20 118 -155 143 -379 6 -54 16 -142 22 -195 20 -187
65 -377 96 -408 22 -23 68 -18 101 10 22 18 38 50 61 122 39 119 53 141 96
159 37 15 50 29 37 38 -5 3 -40 -1 -78 -9 -38 -8 -97 -15 -132 -15 -61 0 -63
1 -83 34 -11 19 -27 37 -35 40 -13 5 -15 19 -9 90 6 68 4 91 -9 117 -21 42
-21 44 9 83 l25 33 -24 20 c-24 21 -36 50 -76 178 -40 130 -67 154 -155 140
-61 -9 -88 -50 -120 -183 -31 -124 -64 -203 -148 -352 -121 -214 -194 -306
-351 -439 -63 -54 -113 -76 -152 -67 -46 12 -36 29 129 238 71 91 137 203 204
350 45 97 57 136 61 187 5 70 -12 163 -32 180 -26 22 -35 13 -154 -164 -29
-44 -64 -88 -78 -98 -13 -10 -31 -34 -40 -53 -22 -47 -298 -311 -368 -353 -73
-44 -217 -92 -371 -124 -66 -14 -162 -39 -213 -56 -65 -22 -112 -31 -156 -31
-178 0 -143 73 59 125 98 26 250 94 346 156 29 18 68 57 94 94 51 71 98 166
87 177 -4 4 -47 10 -97 13 -151 11 -257 53 -240 96 5 13 31 17 143 23 75 4
189 14 252 22 63 9 142 19 175 23 142 17 355 179 355 268 0 21 -17 40 -54 58
-35 17 -34 96 1 110 10 3 115 15 233 25 239 22 328 35 377 55 46 20 44 45 -4
44 -21 0 -42 -2 -48 -5z m434 -1104 c41 -28 46 -29 62 -14 10 9 23 13 28 9 21
-13 11 -55 -23 -93 -25 -27 -35 -49 -38 -77 -2 -32 -7 -40 -23 -40 -16 0 -26
18 -53 100 -31 97 -35 145 -9 145 6 0 32 -14 56 -30z m-259 -353 c17 -8 25
-21 25 -37 0 -23 -4 -25 -48 -27 -53 -2 -73 -13 -83 -46 -10 -35 -35 -57 -64
-57 -32 0 -40 15 -40 70 0 49 16 85 44 98 30 15 136 14 166 -1z"/>
<path d="M2060 3675 c-10 -12 -10 -18 0 -30 16 -19 31 -19 77 0 30 13 33 17
23 30 -16 20 -84 20 -100 0z"/>
<path d="M3834 3557 c-12 -33 73 -184 93 -164 10 10 -45 142 -67 162 -17 16
-20 16 -26 2z"/>
<path d="M3733 3471 c11 -54 35 -101 53 -101 14 0 16 7 11 40 -6 48 -31 90
-53 90 -13 0 -15 -7 -11 -29z"/>
<path d="M1712 3378 c-30 -50 -36 -78 -18 -78 20 0 56 57 56 88 0 31 -15 27
-38 -10z"/>
<path d="M7570 3405 c0 -4 8 -20 17 -38 16 -30 18 -31 21 -9 2 13 -2 30 -8 38
-12 14 -30 19 -30 9z"/>
<path d="M7960 3391 c13 -25 33 -28 28 -4 -2 10 -11 19 -21 21 -16 3 -17 1 -7
-17z"/>
<path d="M7430 3343 c0 -10 5 -25 10 -33 8 -12 10 -9 10 12 0 15 -4 30 -10 33
-5 3 -10 -2 -10 -12z"/>
<path d="M3687 3283 c-12 -12 -7 -20 18 -31 51 -24 85 -6 53 26 -13 13 -60 16
-71 5z"/>
<path d="M5922 3113 c-64 -22 -122 -81 -122 -123 0 -41 40 -111 76 -135 38
-25 162 -18 201 11 25 19 28 28 31 90 2 38 -2 86 -8 106 -19 64 -86 84 -178
51z m142 -52 c10 -16 -5 -41 -25 -41 -21 0 -25 20 -7 38 14 14 25 15 32 3z
m-89 -31 c28 -31 14 -128 -17 -118 -29 10 -61 112 -41 131 12 13 40 7 58 -13z"/>
<path d="M4074 2685 c-14 -35 43 -125 78 -125 24 0 23 3 -17 77 -36 64 -51 75
-61 48z"/>
<path d="M3990 2558 c0 -22 38 -76 64 -93 35 -23 52 -10 30 23 -40 64 -94 104
-94 70z"/>
<path d="M3957 2443 c-4 -3 -7 -18 -7 -31 0 -14 -14 -49 -30 -79 -28 -50 -29
-55 -16 -81 8 -16 22 -35 31 -42 14 -12 20 -10 42 13 26 26 26 27 9 46 -17 19
-18 22 -2 55 24 51 30 94 16 111 -13 16 -32 19 -43 8z"/>
<path d="M4840 2301 c0 -41 4 -71 10 -71 6 0 10 28 10 64 0 36 -4 68 -10 71
-6 4 -10 -20 -10 -64z"/>
</g>
</svg>
